<?xml version="1.0" encoding="UTF-8"?>
<svg version="1.1" xmlns="http://www.w3.org/2000/svg" width="640" height="640">
<path d="M0 0 C211.2 0 422.4 0 640 0 C640 211.2 640 422.4 640 640 C428.8 640 217.6 640 0 640 C0 428.8 0 217.6 0 0 Z " fill="#FDFDFD" transform="translate(0,0)"/>
<path d="M0 0 C5.58094295 3.55609278 5.58094295 3.55609278 6.55293202 6.9051882 C6.76256581 9.26788006 6.77864479 11.56574305 6.73257446 13.93745422 C6.74215622 15.28909323 6.74215622 15.28909323 6.75193155 16.66803807 C6.76616333 19.68863146 6.73766471 22.70731006 6.70947266 25.7277832 C6.71109427 27.89285634 6.71540753 30.0579289 6.72221375 32.22299194 C6.73123899 36.88633781 6.72148324 41.54913623 6.69731522 46.21242714 C6.65951031 53.58722854 6.66506812 60.96160616 6.67684937 68.33647156 C6.69370779 82.6635046 6.66559503 96.99028361 6.63343048 111.317276 C6.59497171 129.54297445 6.57883379 147.76863066 6.59863508 165.99436063 C6.60516638 173.32404654 6.5908733 180.6533099 6.56018472 187.98293078 C6.54481619 192.54594509 6.54576522 197.10885368 6.55092812 201.67188644 C6.54986743 203.78583345 6.54192807 205.89979006 6.5265522 208.01368141 C6.50642715 210.90331733 6.51096746 213.79193075 6.52139282 216.68159485 C6.50361312 217.93137421 6.50361312 217.93137421 6.48547423 219.20640165 C6.55398121 226.12727174 8.64383252 231.22803825 13.125 236.5 C18.15468053 239.12418115 23.47828997 238.6578374 28.875 237.25 C31.92021702 235.45869587 34.46131125 233.63364329 35.59948635 230.18198013 C36.04850366 227.73575429 36.14000264 225.45106783 36.15821838 222.96331787 C36.1680072 221.94812073 36.17779602 220.93292358 36.18788147 219.88696289 C36.19363693 218.77925537 36.1993924 217.67154785 36.20532227 216.53027344 C36.21522186 215.35926086 36.22512146 214.18824829 36.23532104 212.98175049 C36.26693132 209.10764596 36.29169175 205.23352916 36.31640625 201.359375 C36.33643954 198.67465455 36.3579251 195.98994624 36.37937927 193.30523682 C36.4292622 186.95885325 36.47421732 180.61244473 36.51740164 174.26601243 C36.56681165 167.03990909 36.6217158 159.81385075 36.67708123 152.58779097 C36.79083371 137.72523599 36.89749249 122.86263693 37 108 C30.73 108 24.46 108 18 108 C18 101.07 18 94.14 18 87 C31.69977791 86.90959767 45.39935739 86.83622518 59.09936619 86.79275131 C65.46096957 86.77188508 71.82235814 86.74358431 78.18383789 86.69824219 C84.32410224 86.65475115 90.46416007 86.63085564 96.60456657 86.62049103 C98.94611804 86.6131056 101.28765833 86.59868361 103.62912178 86.57707977 C106.91127999 86.54800343 110.19258703 86.5440459 113.47485352 86.54589844 C114.44086487 86.53151733 115.40687622 86.51713623 116.40216064 86.50231934 C122.45198283 86.539219 126.05974641 87.43408784 131 91 C132.1977191 93.39543821 132.3052625 95.13969954 132.4375 97.8125 C132.49808594 98.66457031 132.55867187 99.51664062 132.62109375 100.39453125 C131.89123334 103.45627273 130.71495026 104.99883873 128.25349426 106.94520569 C122.95205047 109.42665543 116.50925967 108.59383312 110.7578125 108.48828125 C109.26424344 108.47894672 107.77065898 108.47183363 106.27706909 108.46684265 C102.36072951 108.44782267 98.44532859 108.39876712 94.52935791 108.34332275 C90.52751359 108.29202096 86.52551643 108.26930544 82.5234375 108.24414062 C74.68186264 108.19064167 66.84104834 108.10539172 59 108 C59.00276538 108.61346189 59.00553076 109.22692377 59.00837994 109.85897541 C59.07480002 124.82575857 59.12435821 139.79249611 59.15543652 154.75938892 C59.17086745 161.99744288 59.19188421 169.23539811 59.22631836 176.47338867 C59.25633692 182.78627283 59.27560239 189.09908543 59.28226548 195.41203898 C59.28615685 198.75091402 59.29682585 202.08942326 59.31719017 205.42826271 C59.33907878 209.16689637 59.34196207 212.90511104 59.34057617 216.64379883 C59.351362 217.73569016 59.36214783 218.82758148 59.3732605 219.95256042 C59.34488534 227.06173278 58.20754499 233.2436588 56 240 C55.34 240 54.68 240 54 240 C53.90976562 240.5671875 53.81953125 241.134375 53.7265625 241.71875 C51.97170049 247.22863932 46.53519669 252.34665679 41.6875 255.375 C32.08394054 260.13312719 21.28475219 261.6866284 10.93359375 258.6875 C-1.83685977 254.1468943 -8.26285574 245.96404473 -14 234 C-15.2708346 229.38500363 -15.14244648 224.79059536 -15.13371277 220.0423584 C-15.13597833 219.13914903 -15.13824388 218.23593966 -15.14057809 217.30536032 C-15.14690899 214.27843034 -15.14608931 211.25154524 -15.14526367 208.22460938 C-15.14825567 206.05467165 -15.1516583 203.88473446 -15.15544128 201.71479797 C-15.16427993 195.82031538 -15.1666193 189.9258473 -15.16725707 184.03135872 C-15.16820625 179.11311295 -15.17188455 174.19487057 -15.17542917 169.27662611 C-15.18357273 157.6764404 -15.18601344 146.07626246 -15.18530273 134.47607422 C-15.18470152 122.50125195 -15.19526229 110.52649301 -15.2110464 98.55168104 C-15.2241098 88.2755765 -15.22948716 77.99948668 -15.22884732 67.72337389 C-15.22859204 61.58360748 -15.23146003 55.44388108 -15.24202538 49.30412292 C-15.2516865 43.53232022 -15.25179919 37.76059593 -15.24450874 31.98879051 C-15.24346052 29.8687599 -15.24583979 27.74872446 -15.2518692 25.62870216 C-15.25955835 22.73825564 -15.25496474 19.84808202 -15.24723816 16.9576416 C-15.25238172 16.11571683 -15.25752529 15.27379207 -15.26282471 14.40635443 C-15.23256192 9.2951952 -14.91226548 5.21822796 -11.4375 1.1875 C-7.73263724 -0.61743314 -4.00978475 -0.98622538 0 0 Z " fill="#234C7B" transform="translate(250,104)"/>
<path d="M0 0 C0.89061127 -0.00511093 1.78122253 -0.01022186 2.69882202 -0.01548767 C5.61276148 -0.0292737 8.52646172 -0.02843626 11.44042969 -0.02612305 C13.47825202 -0.03001396 15.51607355 -0.03434944 17.55389404 -0.03910828 C21.81037028 -0.04654526 26.0667635 -0.04629602 30.32324219 -0.04101562 C35.77630124 -0.03520213 41.22902271 -0.05220951 46.68202591 -0.0753603 C50.88391096 -0.09008589 55.08571426 -0.09097132 59.28762054 -0.08785057 C61.29865949 -0.08836364 63.30970303 -0.09359872 65.32071686 -0.10366249 C68.12809861 -0.11599661 70.93481642 -0.10925511 73.7421875 -0.09765625 C74.98441574 -0.10912186 74.98441574 -0.10912186 76.2517395 -0.12081909 C80.85754522 -0.07875156 83.88261623 0.27697264 87.61230469 3.2746582 C90.13724647 7.06207088 90.13693295 8.77784454 89.61230469 13.2746582 C88.29125245 15.9378153 86.79219043 18.24392254 84.61230469 20.2746582 C80.5272905 21.54707065 76.46109162 21.41183796 72.22290039 21.40063477 C71.37845871 21.4025029 70.53401703 21.40437103 69.66398621 21.40629578 C67.83173744 21.41029568 65.9994837 21.41237424 64.16723061 21.41275787 C60.26420234 21.41618126 56.36133947 21.43755581 52.45836926 21.45798874 C45.19528726 21.49595561 37.93238208 21.52727683 30.66918945 21.52514648 C25.6133588 21.52435728 20.55813457 21.54781254 15.50246239 21.5870285 C13.58128781 21.59745883 11.66004299 21.5990345 9.73885536 21.59137726 C-4.13542762 21.37822315 -4.13542762 21.37822315 -16.38769531 27.2746582 C-17.04769531 27.2746582 -17.70769531 27.2746582 -18.38769531 27.2746582 C-18.65582031 27.9965332 -18.92394531 28.7184082 -19.20019531 29.4621582 C-20.38769531 32.2746582 -20.38769531 32.2746582 -21.92993164 34.50976562 C-23.74394724 37.95034955 -23.81689581 40.44708155 -23.89941406 44.32543945 C-23.91736526 44.98424606 -23.93531647 45.64305267 -23.95381165 46.32182312 C-24.00766187 48.41020451 -24.0417264 50.4983608 -24.07519531 52.5871582 C-24.10839101 54.00971541 -24.14288276 55.43224299 -24.17871094 56.85473633 C-24.26579747 60.32807137 -24.32607249 63.80040619 -24.38769531 67.2746582 C-31.31769531 67.2746582 -38.24769531 67.2746582 -45.38769531 67.2746582 C-45.48044619 62.93597847 -45.55978366 58.60085114 -45.60742188 54.26196289 C-45.62731508 52.79179111 -45.65444003 51.32169606 -45.68945312 49.85180664 C-45.96537779 37.95458449 -44.91850793 26.99183578 -37.38769531 17.2746582 C-36.58332031 16.0990332 -36.58332031 16.0990332 -35.76269531 14.8996582 C-35.30894531 14.3634082 -34.85519531 13.8271582 -34.38769531 13.2746582 C-33.72769531 13.2746582 -33.06769531 13.2746582 -32.38769531 13.2746582 C-32.05769531 12.2846582 -31.72769531 11.2946582 -31.38769531 10.2746582 C-29.20800781 8.66918945 -29.20800781 8.66918945 -26.51269531 7.0871582 C-25.62839844 6.55735352 -24.74410156 6.02754883 -23.83300781 5.48168945 C-21.38769531 4.2746582 -21.38769531 4.2746582 -18.38769531 4.2746582 C-18.38769531 3.6146582 -18.38769531 2.9546582 -18.38769531 2.2746582 C-12.17719651 0.65318844 -6.40737541 -0.01935692 0 0 Z " fill="#254D7C" transform="translate(333.3876953125,106.725341796875)"/>
<path d="M0 0 C8.4459375 -0.0928125 8.4459375 -0.0928125 17.0625 -0.1875 C18.82601807 -0.21481201 20.58953613 -0.24212402 22.40649414 -0.27026367 C23.82437457 -0.27903602 25.24226264 -0.28667818 26.66015625 -0.29296875 C27.38005737 -0.30831665 28.0999585 -0.32366455 28.8416748 -0.33947754 C36.02641465 -0.34314759 41.75478976 1.90049004 47 7 C50.52448035 12.10441981 50.59115129 17.00833097 50 23 C49.03320688 26.2456626 47.89089175 28.16366238 46 31 C45.34 31 44.68 31 44 31 C44 31.66 44 32.32 44 33 C41 35 41 35 38 35 C41.1156877 40.96044604 45.0543317 46.13274575 49.171875 51.42578125 C51 54 51 54 51 56 C46.60720631 57.28222086 43.36054664 57.49434464 39 56 C36.50468949 53.27431804 34.6297932 50.19685987 32.6875 47.0625 C29.24144175 41.12488928 29.24144175 41.12488928 23.96484375 37.04931641 C19.38212349 36.03972541 15.82370118 36.54918681 11 37 C11 43.27 11 49.54 11 56 C7.37 56 3.74 56 0 56 C0 37.52 0 19.04 0 0 Z " fill="#294F78" transform="translate(439,431)"/>
<path d="M0 0 C5.73375 -0.12375 11.4675 -0.2475 17.375 -0.375 C20.05761963 -0.45693604 20.05761963 -0.45693604 22.79443359 -0.54052734 C31.77137571 -0.7007661 39.0348918 -0.44724244 46 6 C49.66221149 10.4848746 50.36159417 13.99078943 50.28515625 19.84375 C49.55069231 25.39750474 46.38720357 30.57249721 42 34 C39.75 34.75 39.75 34.75 38 35 C40.84948217 40.4615075 44.30722454 44.97233318 48.29296875 49.66796875 C49.91746641 51.88724816 50.58672756 53.31681328 51 56 C46.60720631 57.28222086 43.36054664 57.49434464 39 56 C36.50468949 53.27431804 34.6297932 50.19685987 32.6875 47.0625 C29.24144175 41.12488928 29.24144175 41.12488928 23.96484375 37.04931641 C19.38212349 36.03972541 15.82370118 36.54918681 11 37 C11 43.27 11 49.54 11 56 C7.37 56 3.74 56 0 56 C0 37.52 0 19.04 0 0 Z " fill="#274C77" transform="translate(374,431)"/>
<path d="M0 0 C3.96 0 7.92 0 12 0 C24.17690451 25.11361588 24.17690451 25.11361588 29.46484375 37.4609375 C31.51954546 42.19773076 33.71752064 46.85984762 35.93359375 51.5234375 C37 54 37 54 37 56 C33.04 56 29.08 56 25 56 C20 45.25 20 45.25 20 43 C10.43 43 0.86 43 -9 43 C-9.66 44.98 -10.32 46.96 -11 49 C-11.94887818 51.35913748 -12.97560606 53.67183195 -14 56 C-17.96 56 -21.92 56 -26 56 C-23.46046042 47.11161146 -19.21157148 39.18336006 -15 31 C-11.6959669 24.5499855 -8.61061598 18.16824919 -6.01171875 11.40234375 C-4.33096289 7.41135976 -2.1727989 3.74204254 0 0 Z " fill="#244B78" transform="translate(523,431)"/>
<path d="M0 0 C14.19 0 28.38 0 43 0 C43 2.97 43 5.94 43 9 C32.44 9 21.88 9 11 9 C11 13.62 11 18.24 11 23 C20.57 23 30.14 23 40 23 C40 25.97 40 28.94 40 32 C30.43 32 20.86 32 11 32 C11 36.95 11 41.9 11 47 C21.89 47 32.78 47 44 47 C44 49.97 44 52.94 44 56 C29.48 56 14.96 56 0 56 C0 37.52 0 19.04 0 0 Z " fill="#264A73" transform="translate(315,431)"/>
<path d="M0 0 C14.52 0 29.04 0 44 0 C44 2.97 44 5.94 44 9 C33.11 9 22.22 9 11 9 C11 14.28 11 19.56 11 25 C20.57 25 30.14 25 40 25 C40 27.97 40 30.94 40 34 C30.43 34 20.86 34 11 34 C11 41.26 11 48.52 11 56 C7.37 56 3.74 56 0 56 C0 37.52 0 19.04 0 0 Z " fill="#264C77" transform="translate(90,431)"/>
<path d="M0 0 C4.14825073 -0.61304198 7.86947635 -0.81571347 12 0 C15.26195639 2.78279895 16.9770187 6.26198538 19 10 C19.72393914 11.168469 20.45741677 12.33107016 21.19921875 13.48828125 C27 22.57491629 27 22.57491629 27 25 C27.66 25 28.32 25 29 25 C29.26804443 24.43756592 29.53608887 23.87513184 29.81225586 23.2956543 C31.07896228 20.84738288 32.49984739 18.57945892 34.00390625 16.26953125 C34.57947266 15.38458984 35.15503906 14.49964844 35.74804688 13.58789062 C36.34681641 12.67201172 36.94558594 11.75613281 37.5625 10.8125 C38.16513672 9.88501953 38.76777344 8.95753906 39.38867188 8.00195312 C43.86356027 1.13643973 43.86356027 1.13643973 45 0 C47.01964199 -0.07244053 49.04167124 -0.08377188 51.0625 -0.0625 C52.71958984 -0.04896484 52.71958984 -0.04896484 54.41015625 -0.03515625 C55.26480469 -0.02355469 56.11945313 -0.01195312 57 0 C51.64961338 10.18631299 45.07255927 19.55537535 38.4453125 28.94140625 C35.86016256 32.62349819 34.74161818 34.61667582 34.5859375 39.10546875 C34.54726562 40.08837891 34.50859375 41.07128906 34.46875 42.08398438 C34.42234375 43.62022461 34.42234375 43.62022461 34.375 45.1875 C34.33632812 46.22326172 34.29765625 47.25902344 34.2578125 48.32617188 C34.16352131 50.88382027 34.08067082 53.44188578 34 56 C30.37 56 26.74 56 23 56 C23 48.74 23 41.48 23 34 C21.68 33.34 20.36 32.68 19 32 C17.47119141 29.21948242 17.47119141 29.21948242 16 26 C14.84957354 24.14429775 13.66879305 22.30712618 12.4609375 20.48828125 C11.79835937 19.48345703 11.13578125 18.47863281 10.453125 17.44335938 C9.05991952 15.34438532 7.66669009 13.24542716 6.2734375 11.14648438 C5.6134375 10.14552734 4.9534375 9.14457031 4.2734375 8.11328125 C3.66935059 7.20360596 3.06526367 6.29393066 2.44287109 5.35668945 C1 3 1 3 0 0 Z " fill="#274D77" transform="translate(187,431)"/>
<path d="M0 0 C16.5 0 33 0 50 0 C50 2.97 50 5.94 50 9 C43.4 9 36.8 9 30 9 C30 24.51 30 40.02 30 56 C26.37 56 22.74 56 19 56 C19 40.49 19 24.98 19 9 C12.73 9 6.46 9 0 9 C0 6.03 0 3.06 0 0 Z " fill="#284D77" transform="translate(251,431)"/>
<path d="M0 0 C3.63 0 7.26 0 11 0 C11 15.51 11 31.02 11 47 C20.9 47 30.8 47 41 47 C41 49.97 41 52.94 41 56 C27.47 56 13.94 56 0 56 C0 37.52 0 19.04 0 0 Z " fill="#234772" transform="translate(148,431)"/>
<path d="M0 0 C0.66 0.66 1.32 1.32 2 2 C-4.5 5 -4.5 5 -9 5 C-9.33 5.66 -9.66 6.32 -10 7 C-10.33 6.67 -10.66 6.34 -11 6 C-11 80.58 -11 155.16 -11 232 C-11.66 232.33 -12.32 232.66 -13 233 C-12.01 233 -11.02 233 -10 233 C-11 235 -11 235 -13 236 C-14.86301138 230.46258118 -15.28501926 225.62116027 -15.25396729 219.80184937 C-15.25864726 218.44447204 -15.25864726 218.44447204 -15.26342177 217.05967295 C-15.27137505 214.03890117 -15.26508856 211.01833174 -15.25878906 207.99755859 C-15.26150007 205.82732526 -15.26506162 203.65709285 -15.26940918 201.48686218 C-15.27852128 195.60074209 -15.27499404 189.71469215 -15.26865101 183.82857084 C-15.26358624 177.66896596 -15.26828367 171.50936708 -15.27142334 165.34976196 C-15.27506104 155.00822877 -15.27026844 144.66672416 -15.26074219 134.32519531 C-15.24985228 122.36510155 -15.25338792 110.40507595 -15.264395 98.44498384 C-15.27346658 88.17732769 -15.27475395 77.90969208 -15.26951766 67.64203322 C-15.266398 61.50900824 -15.26598866 55.37601532 -15.27259064 49.2429924 C-15.27836177 43.47936366 -15.2743714 37.71582297 -15.26280212 31.95220375 C-15.26015455 29.83539921 -15.26092228 27.71858727 -15.26532745 25.60178566 C-15.27078028 22.71581771 -15.2639519 19.83013317 -15.25396729 16.94418335 C-15.25842873 16.10362282 -15.26289017 15.26306229 -15.26748681 14.39703023 C-15.23314336 9.29065496 -14.90874601 5.21414537 -11.4375 1.1875 C-7.77537541 -0.59661198 -4.00708439 -0.59564768 0 0 Z " fill="#355474" transform="translate(250,104)"/>
<path d="M0 0 C3.96 0 7.92 0 12 0 C14.31 4.95 16.62 9.9 19 15 C16 15 16 15 14 14 C13.34 13.01 12.68 12.02 12 11 C10.96105205 14.11684386 10.94304024 15.88706126 11.1875 19.125 C11.24292969 20.01445312 11.29835938 20.90390625 11.35546875 21.8203125 C12.10649017 26.11463699 12.10649017 26.11463699 16 34 C9.07 34 2.14 34 -5 34 C-5.66 32.68 -6.32 31.36 -7 30 C-7.391875 30.515625 -7.78375 31.03125 -8.1875 31.5625 C-8.785625 32.036875 -9.38375 32.51125 -10 33 C-12.61328125 32.58984375 -12.61328125 32.58984375 -15 32 C-12.61987588 25.82180547 -10.02900068 19.88268941 -7 14 C-5.74486042 11.50256479 -4.49775125 9.00113287 -3.25 6.5 C-2.63033387 5.26035391 -2.01055191 4.0207657 -1.390625 2.78125 C-0.93171875 1.8634375 -0.4728125 0.945625 0 0 Z " fill="#294E78" transform="translate(523,431)"/>
<path d="M0 0 C0.33 0 0.66 0 1 0 C1 1.98 1 3.96 1 6 C1.99 5.67 2.98 5.34 4 5 C4.66 6.65 5.32 8.3 6 10 C6.33 8.68 6.66 7.36 7 6 C8 7 8 7 8.1875 10.75 C8.12533154 15.71459568 6.74925701 18.87611448 4 23 C3.34 23 2.68 23 2 23 C2 23.66 2 24.32 2 25 C-1 27 -1 27 -4 27 C-0.8843123 32.96044604 3.0543317 38.13274575 7.171875 43.42578125 C9 46 9 46 9 48 C4.60634362 49.28247267 1.36173529 49.49307437 -3 48 C-5.51820414 45.27669326 -7.41507388 42.20199457 -9.375 39.0625 C-13.3185835 32.20605108 -13.3185835 32.20605108 -19.93359375 28.58203125 C-23.41479275 28.39622707 -26.56113258 28.45349333 -30 29 C-30.79953138 25.71303767 -31.09658936 24.28976808 -30 21 C-28.7934375 20.93941406 -27.586875 20.87882812 -26.34375 20.81640625 C-24.72915876 20.73192182 -23.11457586 20.64727789 -21.5 20.5625 C-20.70851563 20.52318359 -19.91703125 20.48386719 -19.1015625 20.44335938 C-9.44287299 19.95228945 -9.44287299 19.95228945 0 18 C-0.66 18 -1.32 18 -2 18 C-2.81700416 14.9903522 -3.32776447 12.03496304 -3.6875 8.9375 C-3.79449219 8.08027344 -3.90148437 7.22304688 -4.01171875 6.33984375 C-4 4 -4 4 -2 1 C-1.67 1.33 -1.34 1.66 -1 2 C-0.67 1.34 -0.34 0.68 0 0 Z " fill="#244A74" transform="translate(481,439)"/>
<path d="M0 0 C0.66 0 1.32 0 2 0 C2.61875 0.680625 3.2375 1.36125 3.875 2.0625 C4.57625 2.701875 5.2775 3.34125 6 4 C8.21858253 3.86358623 8.21858253 3.86358623 10 3 C10.495 4.485 10.495 4.485 11 6 C11.66 5.67 12.32 5.34 13 5 C13.59270081 11.42751096 13.29166164 16.06543217 9.51171875 21.4375 C7.30448718 23.7188763 5.07323314 24.42823569 2 25 C4.84948217 30.4615075 8.30722454 34.97233318 12.29296875 39.66796875 C13.91746641 41.88724816 14.58672756 43.31681328 15 46 C10.60634362 47.28247267 7.36173529 47.49307437 3 46 C0.48179586 43.27669326 -1.41507388 40.20199457 -3.375 37.0625 C-7.3185835 30.20605108 -7.3185835 30.20605108 -13.93359375 26.58203125 C-17.41479275 26.39622707 -20.56113258 26.45349333 -24 27 C-23.505 25.515 -23.505 25.515 -23 24 C-22.34 24.33 -21.68 24.66 -21 25 C-21.66 23.02 -22.32 21.04 -23 19 C-22.44014404 18.98541748 -21.88028809 18.97083496 -21.3034668 18.95581055 C-18.76411863 18.88128648 -16.22607922 18.78464419 -13.6875 18.6875 C-12.80642578 18.66494141 -11.92535156 18.64238281 -11.01757812 18.61914062 C-10.17001953 18.58369141 -9.32246094 18.54824219 -8.44921875 18.51171875 C-7.66893311 18.48553467 -6.88864746 18.45935059 -6.0847168 18.43237305 C-3.53570931 17.90370549 -2.72628693 16.88148692 -1 15 C-0.34 15 0.32 15 1 15 C1.02715383 13.25008666 1.04646551 11.50005055 1.0625 9.75 C1.07410156 8.77546875 1.08570313 7.8009375 1.09765625 6.796875 C1.01195577 4.34241322 0.70706066 2.33831086 0 0 Z " fill="#264D7A" transform="translate(410,441)"/>
<path d="M0 0 C3.01125 -0.061875 6.0225 -0.12375 9.125 -0.1875 C10.06230957 -0.21481201 10.99961914 -0.24212402 11.96533203 -0.27026367 C17.05682897 -0.32069064 20.63185792 0.08110132 25 3 C27.11212504 6.16818756 27.33156464 8.13219252 27.55859375 11.8671875 C26.59816734 15.53427017 25.08062207 16.80874671 22 19 C18.20941498 19.60763104 14.51383056 19.47162443 10.6875 19.3125 C9.66076172 19.28994141 8.63402344 19.26738281 7.57617188 19.24414062 C5.05015334 19.18539601 2.52488776 19.09572026 0 19 C0 12.73 0 6.46 0 0 Z " fill="#F3F7F9" transform="translate(450,440)"/>
<path d="M0 0 C2.805 -0.061875 5.61 -0.12375 8.5 -0.1875 C9.8003418 -0.22846802 9.8003418 -0.22846802 11.12695312 -0.27026367 C16.75096774 -0.32953762 20.88524827 0.62117966 26 3 C27.72515631 6.45031261 27.49677924 10.22716304 27 14 C24.80168636 17.03215675 23.55036806 17.81654398 20 19 C18.44578271 19.08106686 16.88832973 19.10756898 15.33203125 19.09765625 C14.43935547 19.09443359 13.54667969 19.09121094 12.62695312 19.08789062 C11.23379883 19.07532227 11.23379883 19.07532227 9.8125 19.0625 C8.87212891 19.05798828 7.93175781 19.05347656 6.96289062 19.04882812 C4.64189992 19.03704645 2.32094193 19.01911114 0 19 C0 12.73 0 6.46 0 0 Z " fill="#F9FCFB" transform="translate(385,440)"/>
<path d="M0 0 C0.33 0 0.66 0 1 0 C1.33 3.96 1.66 7.92 2 12 C1.01 12 0.02 12 -1 12 C-0.22520264 14.99152582 -0.22520264 14.99152582 1 18 C1.99 18.33 2.98 18.66 4 19 C3.67 19.66 3.34 20.32 3 21 C3 21.66 3 22.32 3 23 C3.33 23 3.66 23 4 23 C4 27.95 4 32.9 4 38 C14.89 38 25.78 38 37 38 C37 40.31 37 42.62 37 45 C23.14 45 9.28 45 -5 45 C-4.835 41.865 -4.67 38.73 -4.5 35.5 C-4.08433562 27.39675886 -3.94894758 19.36041275 -4.16015625 11.25 C-3.93115156 6.60288039 -2.55556824 3.83335237 0 0 Z " fill="#265083" transform="translate(322,440)"/>
<path d="M0 0 C2.31 0 4.62 0 7 0 C7 13.2 7 26.4 7 40 C6.67 40 6.34 40 6 40 C6 41.65 6 43.3 6 45 C9.95495425 47.61537297 14.16827373 47.44264274 18.75 47.625 C19.54277344 47.66367187 20.33554688 47.70234375 21.15234375 47.7421875 C23.10119416 47.836108 25.05056451 47.91912822 27 48 C27 48.33 27 48.66 27 49 C29.01822917 49.16276042 31.03645833 49.32552083 33.0546875 49.48828125 C35 50 35 50 37 53 C19.675 53.495 19.675 53.495 2 54 C2 53.34 2 52.68 2 52 C1.34 52 0.68 52 0 52 C0 34.84 0 17.68 0 0 Z " fill="#244D7F" transform="translate(149,432)"/>
<path d="M0 0 C0.33 0 0.66 0 1 0 C1.07026094 15.58643759 1.1230715 31.17283202 1.15543652 46.75938892 C1.17086745 53.99744288 1.19188421 61.23539811 1.22631836 68.47338867 C1.25633692 74.78627283 1.27560239 81.09908543 1.28226548 87.41203898 C1.28615685 90.75091402 1.29682585 94.08942326 1.31719017 97.42826271 C1.33907878 101.16689637 1.34196207 104.90511104 1.34057617 108.64379883 C1.35675491 110.28163582 1.35675491 110.28163582 1.3732605 111.95256042 C1.34488534 119.06173278 0.20754499 125.2436588 -2 132 C-2.66 132 -3.32 132 -4 132 C-4.10183594 132.58265625 -4.20367187 133.1653125 -4.30859375 133.765625 C-5.11517153 136.37219275 -6.24157009 137.73535414 -8.0625 139.75 C-8.61035156 140.36359375 -9.15820312 140.9771875 -9.72265625 141.609375 C-10.14417969 142.06828125 -10.56570313 142.5271875 -11 143 C-11.66 142.67 -12.32 142.34 -13 142 C-13 141.34 -13 140.68 -13 140 C-11.515 139.01 -11.515 139.01 -10 138 C-9.26656572 134.93443402 -9.26656572 134.93443402 -9 132 C-8.34 132.33 -7.68 132.66 -7 133 C-1.74820098 125.12230147 -1.84714922 116.98829334 -1.81054688 107.82568359 C-1.80225357 106.70957199 -1.79396027 105.59346039 -1.78541565 104.44352722 C-1.76805086 102.02581555 -1.75287439 99.60808738 -1.73963928 97.19034958 C-1.71857221 93.36616427 -1.69155407 89.54206201 -1.66296387 85.71792603 C-1.59827921 76.91342481 -1.54235205 68.10887715 -1.48697662 59.30431366 C-1.43204909 50.58510645 -1.37337117 41.86594651 -1.30812073 33.14680862 C-1.28152899 29.37550447 -1.26072771 25.6041961 -1.2401123 21.83285522 C-1.22351184 19.52707719 -1.20664022 17.22130108 -1.18945312 14.91552734 C-1.18526871 13.86399979 -1.18108429 12.81247223 -1.17677307 11.7290802 C-1.16842941 10.76462479 -1.16008575 9.80016937 -1.15148926 8.80648804 C-1.14633553 7.96991858 -1.14118179 7.13334911 -1.13587189 6.27142906 C-1.00351927 4.05883323 -0.61330819 2.1249896 0 0 Z " fill="#35516D" transform="translate(308,212)"/>
<path d="M0 0 C13.02106078 -0.18780376 25.99533484 0.39250166 39 1 C38.67 2.65 38.34 4.3 38 6 C34.87110843 7.04296386 33.13456659 7.00988519 29.88671875 6.7734375 C28.88576172 6.7115625 27.88480469 6.6496875 26.85351562 6.5859375 C24.75396986 6.44605413 22.65496986 6.29770517 20.55664062 6.140625 C12.76499799 5.55863209 12.76499799 5.55863209 6 9 C4.70281536 12.34495889 4.70281536 12.34495889 4.25 16.125 C3.88310338 18.42515958 3.47808418 20.72035469 3 23 C2.34 23.33 1.68 23.66 1 24 C-0.32915021 16.02509872 -0.08801359 8.05813281 0 0 Z " fill="#214A7A" transform="translate(92,432)"/>
<path d="M0 0 C1.32 0.66 2.64 1.32 4 2 C3.01 2.66 2.02 3.32 1 4 C-0.51066309 8.1679204 -0.13507947 12.60834351 -0.12025452 16.98492432 C-0.12110894 17.90305774 -0.12196337 18.82119117 -0.12284368 19.76714683 C-0.12449365 22.85031812 -0.11898498 25.93343526 -0.11352539 29.01660156 C-0.11324339 31.22406005 -0.11340151 33.43151862 -0.1139679 35.63897705 C-0.11425536 41.63855703 -0.10836678 47.63811711 -0.10139394 53.63769245 C-0.095152 59.9050874 -0.09455593 66.17248279 -0.09336853 72.43988037 C-0.09061137 82.96155113 -0.08436081 93.48321571 -0.07543945 104.00488281 C-0.06626008 114.84212202 -0.05918181 125.67935925 -0.05493164 136.51660156 C-0.05466892 137.18463768 -0.05440619 137.85267379 -0.05413551 138.54095343 C-0.05283047 141.89230284 -0.05156676 145.24365226 -0.05032361 148.5950017 C-0.03986484 176.39667289 -0.02227018 204.19833593 0 232 C-0.99 232.33 -1.98 232.66 -3 233 C-2.91806172 204.32804562 -2.826036 175.65614003 -2.71994839 146.98426422 C-2.70742968 143.59847785 -2.69499688 140.21269118 -2.68261719 136.8269043 C-2.68015119 136.15286153 -2.6776852 135.47881877 -2.67514448 134.78435046 C-2.63543218 123.87359623 -2.60267808 112.96283166 -2.57250018 102.05204736 C-2.5413746 90.85469114 -2.5026131 79.6573757 -2.45720994 68.46006733 C-2.43195273 62.17150991 -2.41016904 55.88298349 -2.39665604 49.59438896 C-2.38382878 43.67569767 -2.36176692 37.75711272 -2.33261681 31.83848 C-2.32354629 29.66609217 -2.31785202 27.49368722 -2.31578636 25.32128143 C-2.31246018 22.35460541 -2.29697273 19.38823024 -2.2784729 16.4216156 C-2.28040763 15.56265118 -2.28234237 14.70368675 -2.28433573 13.8186931 C-2.23794144 8.83973158 -1.59440924 4.72377817 0 0 Z " fill="#E6F8FD" transform="translate(236,104)"/>
<path d="M0 0 C2.62117491 2.30188165 3.73354209 4.36966316 4.9375 7.625 C6.77457014 12.53975906 8.84996214 17.16241481 11 22 C4.4 22 -2.2 22 -9 22 C-8.11341939 17.56709696 -6.97461246 14.47210404 -5.0625 10.4375 C-4.27552734 8.76494141 -4.27552734 8.76494141 -3.47265625 7.05859375 C-2.33459544 4.694929 -1.18458934 2.34056542 0 0 Z " fill="#E9EFF3" transform="translate(528,443)"/>
<path d="M0 0 C14.52 0 29.04 0 44 0 C44 2.97 44 5.94 44 9 C33.11 9 22.22 9 11 9 C14 6 14 6 16.72729492 5.7512207 C17.80084229 5.80882568 18.87438965 5.86643066 19.98046875 5.92578125 C21.72553711 6.00795898 21.72553711 6.00795898 23.50585938 6.09179688 C24.72080078 6.16462891 25.93574219 6.23746094 27.1875 6.3125 C28.41404297 6.37373047 29.64058594 6.43496094 30.90429688 6.49804688 C33.93720422 6.65146242 36.96861342 6.81933809 40 7 C40.33 5.35 40.66 3.7 41 2 C28.13 2 15.26 2 2 2 C1.67 19.82 1.34 37.64 1 56 C0.67 56 0.34 56 0 56 C0 37.52 0 19.04 0 0 Z " fill="#37506E" transform="translate(90,431)"/>
<path d="M0 0 C1 2 1 2 0 6 C-22.77 5.67 -45.54 5.34 -69 5 C-69 43.94 -69 82.88 -69 123 C-69.33 123 -69.66 123 -70 123 C-70 83.73 -70 44.46 -70 4 C-36.6875 3.6875 -36.6875 3.6875 -26.1706543 3.61206055 C-23.43016172 3.57978604 -20.68968174 3.54641454 -17.94921875 3.51171875 C-17.23643265 3.50880325 -16.52364655 3.50588776 -15.78926086 3.50288391 C-13.68941793 3.49315676 -11.59056486 3.46483587 -9.4909668 3.43237305 C-8.30738083 3.42126999 -7.12379486 3.41016693 -5.90434265 3.39872742 C-2.97806849 3.25016951 -2.97806849 3.25016951 -1.09431458 1.47297668 C-0.73319077 0.98689438 -0.37206696 0.50081207 0 0 Z " fill="#E0F2FE" transform="translate(379,208)"/>
<path d="M0 0 C0.87840546 -0.00014603 1.75681091 -0.00029205 2.66183472 -0.0004425 C5.56201659 0.00025354 8.46213405 0.00803153 11.36230469 0.01586914 C13.37440964 0.01773442 15.38651504 0.0191578 17.39862061 0.02015686 C22.69223283 0.02397341 27.98581757 0.03379637 33.27941895 0.04486084 C38.68204375 0.05509347 44.08467299 0.05965845 49.48730469 0.06469727 C60.08627509 0.07541939 70.6852251 0.0924855 81.28417969 0.11352539 C81.77917969 1.10352539 81.77917969 1.10352539 82.28417969 2.11352539 C70.48848578 2.29047865 58.69269356 2.45643535 46.89664841 2.60830116 C41.41944927 2.67916299 35.94235685 2.75383146 30.46533203 2.8371582 C25.18106354 2.917413 19.89674823 2.98772243 14.61225128 3.05109787 C12.59476077 3.07704868 10.57731331 3.10660082 8.55992889 3.13978958 C5.73724702 3.18561526 2.91468436 3.21870721 0.09179688 3.2487793 C-0.74473923 3.26532059 -1.58127533 3.28186188 -2.44316101 3.29890442 C-9.4458569 3.35034339 -9.4458569 3.35034339 -12.71582031 1.11352539 C-8.48030159 -0.07409584 -4.36843707 -0.01898696 0 0 Z " fill="#284768" transform="translate(332.7158203125,106.886474609375)"/>
<path d="M0 0 C0.66 0.33 1.32 0.66 2 1 C1.67854004 1.5165918 1.35708008 2.03318359 1.02587891 2.56542969 C-0.32382656 5.76849083 -0.32578483 8.48087011 -0.4140625 11.953125 C-0.43342865 12.61334656 -0.4527948 13.27356812 -0.4727478 13.95379639 C-0.53229349 16.05240153 -0.57882722 18.15106228 -0.625 20.25 C-0.66320294 21.6771066 -0.70225602 23.10419072 -0.7421875 24.53125 C-0.83956786 28.02071305 -0.91932976 31.50995085 -1 35 C-7.93 35 -14.86 35 -22 35 C-22 25.76 -22 16.52 -22 7 C-21.67 7 -21.34 7 -21 7 C-21 15.58 -21 24.16 -21 33 C-16.05 33 -11.1 33 -6 33 C-4.601608 28.80482399 -4.59086645 24.70919162 -4.375 20.3125 C-4.3234375 19.43916016 -4.271875 18.56582031 -4.21875 17.66601562 C-3.94573945 12.29011666 -4.1701433 7.31975303 -5 2 C-4.01 2.66 -3.02 3.32 -2 4 C-1.34 2.68 -0.68 1.36 0 0 Z " fill="#2D4A6B" transform="translate(310,139)"/>
<path d="M0 0 C3.91441027 1.30480342 6.53969951 2.62847711 9 6 C9.6338947 10.35802608 9.49760663 12.26914026 7 15.9375 C6.34 16.618125 5.68 17.29875 5 18 C4.01 17.34 3.02 16.68 2 16 C3.875 11.125 3.875 11.125 5 10 C4.34 7.69 3.68 5.38 3 3 C-26.37 3 -55.74 3 -86 3 C-86 2.67 -86 2.34 -86 2 C-57.62 1.67 -29.24 1.34 0 1 C0 0.67 0 0.34 0 0 Z " fill="#29517D" transform="translate(414,107)"/>
<path d="M0 0 C0.66 0.33 1.32 0.66 2 1 C2 1.99 2 2.98 2 4 C1.34 4 0.68 4 0 4 C0 6.97 0 9.94 0 13 C-6.04152299 15.013841 -12.64407742 14.60275484 -19 15 C-19.33 29.52 -19.66 44.04 -20 59 C-20.33 59 -20.66 59 -21 59 C-21 43.49 -21 27.98 -21 12 C-14.4 12 -7.8 12 -1 12 C-1 9.03 -1 6.06 -1 3 C-17.5 3 -34 3 -51 3 C-51 2.67 -51 2.34 -51 2 C-34.17 2 -17.34 2 0 2 C0 1.34 0 0.68 0 0 Z " fill="#C1D2E0" transform="translate(302,428)"/>
<path d="M0 0 C0.99 0.495 0.99 0.495 2 1 C1.67 18.16 1.34 35.32 1 53 C4.75848174 54.25282725 8.25490919 54.12381835 12.16796875 54.09765625 C13.36018791 54.09553383 13.36018791 54.09553383 14.57649231 54.09336853 C17.11353325 54.08777378 19.65048575 54.07522228 22.1875 54.0625 C23.90820185 54.05748432 25.62890508 54.05292153 27.34960938 54.04882812 C31.5664403 54.03780607 35.78320516 54.02054506 40 54 C39.505 50.535 39.505 50.535 39 47 C39.66 47 40.32 47 41 47 C41 49.97 41 52.94 41 56 C27.47 56 13.94 56 0 56 C0 37.52 0 19.04 0 0 Z " fill="#243F5D" transform="translate(148,431)"/>
<path d="M0 0 C11.22 0 22.44 0 34 0 C34 1.98 34 3.96 34 6 C32.68 6 31.36 6 30 6 C30 5.34 30 4.68 30 4 C19.44 4 8.88 4 -2 4 C-1.34 2.68 -0.68 1.36 0 0 Z " fill="#244975" transform="translate(325,478)"/>
<path d="M0 0 C1.95766281 -0.08082094 3.91626728 -0.13910778 5.875 -0.1875 C7.51082031 -0.23970703 7.51082031 -0.23970703 9.1796875 -0.29296875 C10.11039063 -0.19628906 11.04109375 -0.09960938 12 0 C14.4294516 3.6441774 14.16179575 5.71241272 14 10 C13.34 10 12.68 10 12 10 C12.33 13.3 12.66 16.6 13 20 C9.75253465 16.09708293 6.97171901 12.0231875 4.25 7.75 C3.83878906 7.11320312 3.42757812 6.47640625 3.00390625 5.8203125 C0 1.12982766 0 1.12982766 0 0 Z " fill="#27486F" transform="translate(187,431)"/>
<path d="M0 0 C3.30616284 3.80208727 7 9.83581485 7 15 C3.04 15 -0.92 15 -5 15 C-10 4.25 -10 4.25 -10 2 C-9.34 2 -8.68 2 -8 2 C-6.375 4.5 -6.375 4.5 -5 7 C-3.35 4.69 -1.7 2.38 0 0 Z " fill="#21487A" transform="translate(553,472)"/>
<path d="M0 0 C2.88437779 1.29299694 4.87219421 2.65941363 7 5 C7.66 3.35 8.32 1.7 9 0 C12.62351253 1.20783751 13.15215236 2.29653142 15.1875 5.4375 C15.71730469 6.24058594 16.24710937 7.04367187 16.79296875 7.87109375 C18 10 18 10 18 12 C7.57841484 13.21416526 7.57841484 13.21416526 3.8671875 10.359375 C1.01839292 6.64355598 0 4.79368125 0 0 Z " fill="#2D506F" transform="translate(407,475)"/>
<path d="M0 0 C14.19 0 28.38 0 43 0 C43 2.64 43 5.28 43 8 C41.68 7.34 40.36 6.68 39 6 C39.66 4.35 40.32 2.7 41 1 C28.13 1 15.26 1 2 1 C2 6.28 2 11.56 2 17 C1.94487897 19.85456579 1.8763671 22.70898691 1.78125 25.5625 C1.75905396 26.25013428 1.73685791 26.93776855 1.71398926 27.64624023 C1.64508435 29.76424884 1.57264379 31.88211674 1.5 34 C1.4515835 35.46874213 1.40340556 36.93749214 1.35546875 38.40625 C1.23971031 41.93759455 1.12078988 45.46882353 1 49 C0.67 49 0.34 49 0 49 C0 32.83 0 16.66 0 0 Z " fill="#2A4561" transform="translate(315,431)"/>
<path d="M0 0 C9.57 0 19.14 0 29 0 C29 2.97 29 5.94 29 9 C19.43 9 9.86 9 0 9 C0.66 8.01 1.32 7.02 2 6 C4.43017578 5.65942383 4.43017578 5.65942383 7.4453125 5.70703125 C8.52167969 5.71669922 9.59804688 5.72636719 10.70703125 5.73632812 C12.39892578 5.7740332 12.39892578 5.7740332 14.125 5.8125 C15.26066406 5.82603516 16.39632813 5.83957031 17.56640625 5.85351562 C20.37807387 5.88895681 23.18880417 5.93836483 26 6 C26 4.68 26 3.36 26 2 C17.42 2 8.84 2 0 2 C0 1.34 0 0.68 0 0 Z " fill="#3A5573" transform="translate(326,454)"/>
<path d="M0 0 C0.66 0 1.32 0 2 0 C2.61875 0.680625 3.2375 1.36125 3.875 2.0625 C4.57625 2.701875 5.2775 3.34125 6 4 C8.21858253 3.86358623 8.21858253 3.86358623 10 3 C10.33 3.99 10.66 4.98 11 6 C11.66 5.67 12.32 5.34 13 5 C13.68837568 14.67550265 13.68837568 14.67550265 11.125 18.625 C10.42375 19.40875 9.7225 20.1925 9 21 C8.34 21 7.68 21 7 21 C7.66 19.35 8.32 17.7 9 16 C8.34 16 7.68 16 7 16 C6.67 16.66 6.34 17.32 6 18 C5.67 16.35 5.34 14.7 5 13 C4.34 13 3.68 13 3 13 C2.87625 11.783125 2.7525 10.56625 2.625 9.3125 C2.21108694 5.93520941 1.45426549 3.10243305 0 0 Z " fill="#204A74" transform="translate(410,441)"/>
<path d="M0 0 C0.33 0 0.66 0 1 0 C1 18.48 1 36.96 1 56 C-0.32 55.67 -1.64 55.34 -3 55 C-2.67 54.01 -2.34 53.02 -2 52 C-1.89000689 50.36959146 -1.8339267 48.73526568 -1.81054688 47.10131836 C-1.78547058 45.60978493 -1.78547058 45.60978493 -1.7598877 44.08811951 C-1.74631226 43.01618851 -1.73273682 41.94425751 -1.71875 40.83984375 C-1.70034058 39.73902969 -1.68193115 38.63821564 -1.66296387 37.50404358 C-1.58418118 32.785592 -1.51644189 28.06699629 -1.44775391 23.34838867 C-1.39611086 19.90796671 -1.33883423 16.46767055 -1.28125 13.02734375 C-1.26767456 11.95338852 -1.25409912 10.87943329 -1.2401123 9.77293396 C-1.22339478 8.7817305 -1.20667725 7.79052704 -1.18945312 6.76928711 C-1.17692505 5.89453232 -1.16439697 5.01977753 -1.15148926 4.11851501 C-1 2 -1 2 0 0 Z " fill="#D9E7F0" transform="translate(147,431)"/>
<path d="M0 0 C0.33 0 0.66 0 1 0 C1 2.64 1 5.28 1 8 C1.66 8 2.32 8 3 8 C3.99 9.485 3.99 9.485 5 11 C5.99 10.67 6.98 10.34 8 10 C7.67 10.94875 7.34 11.8975 7 12.875 C5.89840809 15.77062452 5.89840809 15.77062452 6 18 C5.030625 18.2475 4.06125 18.495 3.0625 18.75 C2.051875 19.1625 1.04125 19.575 0 20 C-0.96877057 22.03243548 -0.96877057 22.03243548 -1 24 C-3.475 23.01 -3.475 23.01 -6 22 C-5.505 20.515 -5.505 20.515 -5 19 C-5 19.66 -5 20.32 -5 21 C-2.99191536 18.99191536 -2.72891244 15.67267893 -2 13 C-2.66 12.34 -3.32 11.68 -4 11 C-3.01 10.67 -2.02 10.34 -1 10 C-0.67 6.7 -0.34 3.4 0 0 Z " fill="#2A5079" transform="translate(412,446)"/>
<path d="M0 0 C9.57 0 19.14 0 29 0 C29 0.99 29 1.98 29 3 C19.76 3.33 10.52 3.66 1 4 C1 9.94 1 15.88 1 22 C0.67 22 0.34 22 0 22 C0 14.74 0 7.48 0 0 Z " fill="#E1EDF6" transform="translate(101,465)"/>
<path d="M0 0 C16.17 0 32.34 0 49 0 C49 0.33 49 0.66 49 1 C33.82 1.33 18.64 1.66 3 2 C2.67 3.65 2.34 5.3 2 7 C2.68449219 6.81566406 3.36898437 6.63132812 4.07421875 6.44140625 C7.55767288 5.91586511 10.3463396 6.34230074 13.8125 6.9375 C14.97394531 7.13214844 16.13539063 7.32679688 17.33203125 7.52734375 C18.21246094 7.68332031 19.09289062 7.83929688 20 8 C20 8.33 20 8.66 20 9 C13.4 9 6.8 9 0 9 C0 6.03 0 3.06 0 0 Z " fill="#2C4664" transform="translate(251,431)"/>
<path d="M0 0 C0.33 0 0.66 0 1 0 C1 6.93 1 13.86 1 21 C0.67 20.34 0.34 19.68 0 19 C-2.64 19 -5.28 19 -8 19 C-7.94008594 17.04081032 -7.85132862 15.08248471 -7.75 13.125 C-7.68039063 11.48917969 -7.68039063 11.48917969 -7.609375 9.8203125 C-7 7 -7 7 -5.078125 5.5546875 C-3 5 -3 5 -1 6 C-0.67 4.02 -0.34 2.04 0 0 Z " fill="#355983" transform="translate(220,466)"/>
<path d="M0 0 C0.33 0 0.66 0 1 0 C1 2.97 1 5.94 1 9 C7.27 9 13.54 9 20 9 C20 24.51 20 40.02 20 56 C19.01 56 18.02 56 17 56 C17.33 54.35 17.66 52.7 18 51 C17.34 50.67 16.68 50.34 16 50 C16.66 49.34 17.32 48.68 18 48 C18.17517747 45.27514272 18.23149133 42.65340638 18.1953125 39.9296875 C18.19106766 38.73534592 18.19106766 38.73534592 18.18673706 37.51687622 C18.1755264 34.96943237 18.15042062 32.42233789 18.125 29.875 C18.11497133 28.14974465 18.10584528 26.42448381 18.09765625 24.69921875 C18.07558422 20.46601086 18.04104867 16.2330647 18 12 C14.828262 10.414131 11.36486178 10.62133555 7.875 10.4375 C7.12089844 10.39431641 6.36679687 10.35113281 5.58984375 10.30664062 C3.72678112 10.2005168 1.86341476 10.09974999 0 10 C0 6.7 0 3.4 0 0 Z " fill="#E1F1F9" transform="translate(250,431)"/>
<path d="M0 0 C0.99 0 1.98 0 3 0 C3.268125 0.598125 3.53625 1.19625 3.8125 1.8125 C4.98493467 3.97224808 6.19369282 5.35790256 8 7 C6.515 9.475 6.515 9.475 5 12 C4.34 10.68 3.68 9.36 3 8 C2.01 10.31 1.02 12.62 0 15 C-0.66 14.67 -1.32 14.34 -2 14 C-2 13.34 -2 12.68 -2 12 C-3.84188612 9.94729537 -3.84188612 9.94729537 -6 9 C-5.07544441 7.491987 -4.1349253 5.99375083 -3.1875 4.5 C-2.66542969 3.6646875 -2.14335937 2.829375 -1.60546875 1.96875 C-1.07566406 1.3190625 -0.54585937 0.669375 0 0 Z " fill="#30557B" transform="translate(226,440)"/>
<path d="M0 0 C0.268125 0.5775 0.53625 1.155 0.8125 1.75 C2.0388622 4.07363365 3.24843434 6.03824646 5 8 C5.99 8 6.98 8 8 8 C6.41037341 12.03520597 4.71767682 16.01811282 3 20 C1.95550089 16.86650268 2.06576355 16.01031744 3 13 C2.01 13.33 1.02 13.66 0 14 C-0.33 12.68 -0.66 11.36 -1 10 C-1.66 10 -2.32 10 -3 10 C-2.39009109 6.44219804 -1.4216319 3.3171411 0 0 Z " fill="#234E81" transform="translate(518,440)"/>
<path d="M0 0 C5.94 0 11.88 0 18 0 C18 0.33 18 0.66 18 1 C12.39 1 6.78 1 1 1 C1 2.32 1 3.64 1 5 C1.66 5 2.32 5 3 5 C4.45781334 9.37344001 4.0598032 13.39515357 4 18 C9.28 18 14.56 18 20 18 C20 18.33 20 18.66 20 19 C13.4 19 6.8 19 0 19 C0 12.73 0 6.46 0 0 Z " fill="#D5E5F0" transform="translate(385,440)"/>
<path d="M0 0 C8.25 0.33 16.5 0.66 25 1 C25 1.99 25 2.98 25 4 C16.75 4 8.5 4 0 4 C0 2.68 0 1.36 0 0 Z " fill="#234D7A" transform="translate(327,455)"/>
<path d="M0 0 C1 2 1 2 0 6 C-23.1 5.67 -46.2 5.34 -70 5 C-70 4.67 -70 4.34 -70 4 C-68.7509211 3.99120064 -68.7509211 3.99120064 -67.47660828 3.98222351 C-59.63364765 3.92434891 -51.79097341 3.85230265 -43.94829082 3.76428509 C-39.91614971 3.71953412 -35.88411073 3.68028872 -31.85180664 3.65356445 C-27.96126837 3.62757818 -24.07112217 3.58720977 -20.18082619 3.53681374 C-18.69570602 3.52011319 -17.21051799 3.50861877 -15.725317 3.50238609 C-13.64678095 3.4927791 -11.56925515 3.46476379 -9.4909668 3.43237305 C-8.30738083 3.42126999 -7.12379486 3.41016693 -5.90434265 3.39872742 C-2.97806849 3.25016951 -2.97806849 3.25016951 -1.09431458 1.47297668 C-0.73319077 0.98689438 -0.37206696 0.50081207 0 0 Z " fill="#C7D7E8" transform="translate(379,208)"/>
<path d="M0 0 C1.98 0 3.96 0 6 0 C7.125 6.75 7.125 6.75 6 9 C5.34 9 4.68 9 4 9 C4.350625 9.763125 4.70125 10.52625 5.0625 11.3125 C6 14 6 14 5 17 C3 14 3 14 3 10 C2.01 10 1.02 10 0 10 C-1.125 2.25 -1.125 2.25 0 0 Z " fill="#214A77" transform="translate(527,432)"/>
<path d="M0 0 C2.0625 0.4375 2.0625 0.4375 4 1 C2.96875 2.4921875 2.96875 2.4921875 1 4 C-1.58465788 4.19210295 -3.9297157 4.23760293 -6.5 4.125 C-11.81671778 3.9045055 -11.81671778 3.9045055 -17 5 C-17 5.99 -17 6.98 -17 8 C-13.7 8 -10.4 8 -7 8 C-7 8.66 -7 9.32 -7 10 C-11.62 10 -16.24 10 -21 10 C-20.67 9.01 -20.34 8.02 -20 7 C-19.34 7.33 -18.68 7.66 -18 8 C-18.66 6.02 -19.32 4.04 -20 2 C-19.42967041 1.97494385 -18.85934082 1.9498877 -18.27172852 1.92407227 C-15.70173843 1.80843451 -13.13214473 1.68556376 -10.5625 1.5625 C-9.66466797 1.52318359 -8.76683594 1.48386719 -7.84179688 1.44335938 C-6.98779297 1.40146484 -6.13378906 1.35957031 -5.25390625 1.31640625 C-4.46314697 1.27974854 -3.6723877 1.24309082 -2.85766602 1.20532227 C-0.98598559 1.19436743 -0.98598559 1.19436743 0 0 Z " fill="#25466A" transform="translate(407,458)"/>
<path d="M0 0 C6.92404249 0.24728723 11.0396475 2.11910395 16 7 C18.125 10.0625 18.125 10.0625 19 13 C18.1875 15.875 18.1875 15.875 17 18 C15 17 15 17 14 14 C13.34 14 12.68 14 12 14 C10.94503714 10.34279543 9.92328593 6.69314372 9 3 C6.03 2.67 3.06 2.34 0 2 C0 1.34 0 0.68 0 0 Z " fill="#365375" transform="translate(470,431)"/>
<path d="M0 0 C8.65306122 4.57142857 8.65306122 4.57142857 10.6875 9.75 C11.16353258 13.17743458 11.05764728 16.54116303 11 20 C10.01 19.67 9.02 19.34 8 19 C7.67 17.35 7.34 15.7 7 14 C6.01 14.495 6.01 14.495 5 15 C4.89042969 14.39671875 4.78085937 13.7934375 4.66796875 13.171875 C3.78331609 8.71265023 3.072371 5.49133069 0 2 C0 1.34 0 0.68 0 0 Z " fill="#3A597E" transform="translate(413,433)"/>
<path d="M0 0 C4.95 0 9.9 0 15 0 C13.35 1.32 11.7 2.64 10 4 C9.67 3.34 9.34 2.68 9 2 C7.02 2.99 5.04 3.98 3 5 C3.01160156 5.59167969 3.02320313 6.18335938 3.03515625 6.79296875 C3.08322386 11.00231785 3.06006883 14.8922333 2 19 C1.34 19 0.68 19 0 19 C0 12.73 0 6.46 0 0 Z " fill="#CBDBE4" transform="translate(450,468)"/>
<path d="M0 0 C2.58227328 2.26949088 3.71422992 4.25388153 4.8125 7.5 C5.08707031 8.2734375 5.36164062 9.046875 5.64453125 9.84375 C6 12 6 12 4 15 C3.67 14.01 3.34 13.02 3 12 C-1.25731568 11.59250325 -1.25731568 11.59250325 -4.875 13.5 C-5.24625 13.995 -5.6175 14.49 -6 15 C-4.40109514 9.80355921 -2.25861997 4.93387858 0 0 Z " fill="#DEECF2" transform="translate(528,443)"/>
<path d="M0 0 C0.763125 0.144375 1.52625 0.28875 2.3125 0.4375 C11.05262099 1.7707388 18.36625606 2.26612368 27 0 C27.33 0.66 27.66 1.32 28 2 C18.86838827 5.70558157 10.37783224 6.23961477 1 3 C0.67 2.01 0.34 1.02 0 0 Z " fill="#48627F" transform="translate(258,359)"/>
<path d="M0 0 C9.24 0 18.48 0 28 0 C28 2.97 28 5.94 28 9 C19.09 9 10.18 9 1 9 C1 8.67 1 8.34 1 8 C9.25 8 17.5 8 26 8 C25.67 6.02 25.34 4.04 25 2 C16.75 1.67 8.5 1.34 0 1 C0 0.67 0 0.34 0 0 Z " fill="#334A66" transform="translate(102,456)"/>
<path d="M0 0 C0.33 0 0.66 0 1 0 C1 2.64 1 5.28 1 8 C1.66 8.33 2.32 8.66 3 9 C2.979375 10.134375 2.95875 11.26875 2.9375 12.4375 C2.58422523 15.81575674 2.58422523 15.81575674 4 17 C6.01964199 17.07244053 8.04167124 17.08377188 10.0625 17.0625 C11.16722656 17.05347656 12.27195312 17.04445312 13.41015625 17.03515625 C14.26480469 17.02355469 15.11945313 17.01195312 16 17 C16 17.66 16 18.32 16 19 C16.99 19.33 17.98 19.66 19 20 C12.73 20 6.46 20 0 20 C0 13.4 0 6.8 0 0 Z " fill="#24466B" transform="translate(269,192)"/>
<path d="M0 0 C3.91441027 1.30480342 6.53969951 2.62847711 9 6 C9.6338947 10.35802608 9.49760663 12.26914026 7 15.9375 C6.01 16.9584375 6.01 16.9584375 5 18 C4.01 17.34 3.02 16.68 2 16 C3.875 11.125 3.875 11.125 5 10 C4.72285156 9.44570312 4.44570313 8.89140625 4.16015625 8.3203125 C2.7734375 5.546875 1.38671875 2.7734375 0 0 Z " fill="#345270" transform="translate(414,107)"/>
<path d="M0 0 C0.66 0 1.32 0 2 0 C2 5.61 2 11.22 2 17 C-1.3 17 -4.6 17 -8 17 C-8 15.68 -8 14.36 -8 13 C-5.36 13 -2.72 13 0 13 C0 8.71 0 4.42 0 0 Z " fill="#2B4966" transform="translate(448,470)"/>
<path d="M0 0 C0.33 0 0.66 0 1 0 C1 18.48 1 36.96 1 56 C0.01 56.495 0.01 56.495 -1 57 C-1 56.34 -1 55.68 -1 55 C-1.66 55 -2.32 55 -3 55 C-2.67 54.01 -2.34 53.02 -2 52 C-1.67 52 -1.34 52 -1 52 C-0.67 34.84 -0.34 17.68 0 0 Z " fill="#ECF9FE" transform="translate(438,431)"/>
<path d="M0 0 C3.96 0 7.92 0 12 0 C9.18471388 5.16135788 6.34603999 10.16683112 3 15 C2.01 14.67 1.02 14.34 0 14 C0.66 12.35 1.32 10.7 2 9 C2.66 9 3.32 9 4 9 C4.185625 7.8553125 4.185625 7.8553125 4.375 6.6875 C5 4 5 4 7 1 C5.02 1 3.04 1 1 1 C0.67 1.66 0.34 2.32 0 3 C0 2.01 0 1.02 0 0 Z " fill="#2F4E6F" transform="translate(232,431)"/>
<path d="M0 0 C0.66 0.66 1.32 1.32 2 2 C2.99 1.67 3.98 1.34 5 1 C3.55424733 4.3734229 1.7950914 6.61595146 -1 9 C-4.11043568 10.05027698 -6.98459434 10.10546586 -10.25 10.0625 C-11.14203125 10.05347656 -12.0340625 10.04445313 -12.953125 10.03515625 C-13.62859375 10.02355469 -14.3040625 10.01195312 -15 10 C-15.33 9.34 -15.66 8.68 -16 8 C-15.01257813 7.79503906 -14.02515625 7.59007812 -13.0078125 7.37890625 C-11.72648437 7.10949219 -10.44515625 6.84007812 -9.125 6.5625 C-7.84882813 6.29566406 -6.57265625 6.02882813 -5.2578125 5.75390625 C-2.13539756 5.1652174 -2.13539756 5.1652174 0 4 C0 2.68 0 1.36 0 0 Z " fill="#DBE9F3" transform="translate(281,333)"/>
<path d="M0 0 C2.6855594 2.6855594 3.06049974 5.37621328 4 9 C3.01 9.33 2.02 9.66 1 10 C0.34 9.34 -0.32 8.68 -1 8 C-1.33 8.66 -1.66 9.32 -2 10 C-1.34 10 -0.68 10 0 10 C-0.33 10.99 -0.66 11.98 -1 13 C-2.918125 12.8453125 -2.918125 12.8453125 -4.875 12.6875 C-5.95394531 12.60048828 -5.95394531 12.60048828 -7.0546875 12.51171875 C-9 12 -9 12 -11 9 C-8.36 9 -5.72 9 -3 9 C-3.33 7.35 -3.66 5.7 -4 4 C-3.34 4 -2.68 4 -2 4 C-1.34 2.68 -0.68 1.36 0 0 Z " fill="#234D83" transform="translate(547,458)"/>
<path d="M0 0 C1.32 0.33 2.64 0.66 4 1 C3.66226563 1.66386719 3.32453125 2.32773437 2.9765625 3.01171875 C2.30753906 4.33623047 2.30753906 4.33623047 1.625 5.6875 C1.18414063 6.55761719 0.74328125 7.42773438 0.2890625 8.32421875 C-0.92664268 10.84772799 -1.99260958 13.38737532 -3 16 C-5.52017426 13.47982574 -5.29730377 12.48500151 -5.3125 9 C-5.32925781 8.113125 -5.34601563 7.22625 -5.36328125 6.3125 C-5.24339844 5.549375 -5.12351562 4.78625 -5 4 C-4.01 3.34 -3.02 2.68 -2 2 C-1.67 2.33 -1.34 2.66 -1 3 C-0.67 2.01 -0.34 1.02 0 0 Z " fill="#ECF5F6" transform="translate(517,435)"/>
<path d="M0 0 C1.38360718 0.06731323 1.38360718 0.06731323 2.79516602 0.13598633 C4.31013672 0.20462891 4.31013672 0.20462891 5.85571289 0.2746582 C7.43642578 0.37037109 7.43642578 0.37037109 9.04907227 0.46801758 C10.62398437 0.53472656 10.62398437 0.53472656 12.23071289 0.6027832 C17.12577286 0.85549184 20.14216071 1.0458118 24.61157227 3.28051758 C14.71157227 3.28051758 4.81157227 3.28051758 -5.38842773 3.28051758 C-2.38842773 0.28051758 -2.38842773 0.28051758 0 0 Z " fill="#294669" transform="translate(106.388427734375,436.719482421875)"/>
<path d="M0 0 C1.32 0.33 2.64 0.66 4 1 C3.67 1.99 3.34 2.98 3 4 C2.34 4 1.68 4 1 4 C1 4.66 1 5.32 1 6 C-2 8 -2 8 -5 8 C-5.33 8.99 -5.66 9.98 -6 11 C-6.99 10.34 -7.98 9.68 -9 9 C-8.67 7.02 -8.34 5.04 -8 3 C-5.03 3.495 -5.03 3.495 -2 4 C-2 3.34 -2 2.68 -2 2 C-1.34 2 -0.68 2 0 2 C0 1.34 0 0.68 0 0 Z " fill="#30506F" transform="translate(482,458)"/>
<path d="M0 0 C3.0900669 3.93281242 4.52583422 7.02125936 5 12 C6.11375 11.7215625 6.11375 11.7215625 7.25 11.4375 C9.94990963 11.00796892 11.44631077 11.14877026 14 12 C13.67 12.66 13.34 13.32 13 14 C11.35 14 9.7 14 8 14 C8 14.66 8 15.32 8 16 C7.34 16 6.68 16 6 16 C4.39149713 13.9045192 2.90159684 11.81767584 1.4375 9.625 C1.02564453 9.02171875 0.61378906 8.4184375 0.18945312 7.796875 C-2.81247574 3.37504852 -2.81247574 3.37504852 -4 1 C-2 0 -2 0 0 0 Z " fill="#E5F0F6" transform="translate(484,471)"/>
<path d="M0 0 C0.99 1.32 1.98 2.64 3 4 C2.01 5.485 2.01 5.485 1 7 C1 7.99 1 8.98 1 10 C2.32 10 3.64 10 5 10 C5 9.34 5 8.68 5 8 C5.66 8.33 6.32 8.66 7 9 C5.02 11.97 5.02 11.97 3 15 C0.2160817 13.60804085 0.02101003 11.84424221 -1 9 C-2.65 9 -4.3 9 -6 9 C-5.67 8.01 -5.34 7.02 -5 6 C-4.34 6 -3.68 6 -3 6 C-2.690625 5.38125 -2.38125 4.7625 -2.0625 4.125 C-1.375 2.75 -0.6875 1.375 0 0 Z " fill="#365477" transform="translate(219,450)"/>
<path d="M0 0 C0.33 0 0.66 0 1 0 C0.125 7.625 0.125 7.625 -1 11 C-1.66 11 -2.32 11 -3 11 C-3.10183594 11.58265625 -3.20367187 12.1653125 -3.30859375 12.765625 C-4.11517153 15.37219275 -5.24157009 16.73535414 -7.0625 18.75 C-7.61035156 19.36359375 -8.15820312 19.9771875 -8.72265625 20.609375 C-9.14417969 21.06828125 -9.56570313 21.5271875 -10 22 C-10.66 21.67 -11.32 21.34 -12 21 C-12 20.34 -12 19.68 -12 19 C-11.01 18.34 -10.02 17.68 -9 17 C-8.26656572 13.93443402 -8.26656572 13.93443402 -8 11 C-7.34 11.33 -6.68 11.66 -6 12 C-4.22293791 9.33440687 -3.12451727 6.9719385 -2 4 C-1.34 4 -0.68 4 0 4 C0 2.68 0 1.36 0 0 Z " fill="#315270" transform="translate(307,333)"/>
<path d="M0 0 C2.97 0 5.94 0 9 0 C9 10.56 9 21.12 9 32 C8.67 32 8.34 32 8 32 C8 24.41 8 16.82 8 9 C7.34 9 6.68 9 6 9 C6 6.36 6 3.72 6 1 C4.02 1 2.04 1 0 1 C0 0.67 0 0.34 0 0 Z " fill="#2D4867" transform="translate(150,431)"/>
<path d="M0 0 C1.32 0.33 2.64 0.66 4 1 C4 1.66 4 2.32 4 3 C1.69 3.33 -0.62 3.66 -3 4 C-3.12375 4.61875 -3.2475 5.2375 -3.375 5.875 C-4 8 -4 8 -6 10 C-8.68839385 10.26991906 -11.29141936 10.08737357 -14 10 C-10.62546316 6.32770991 -7.62544907 3.91051157 -3 2 C-2.01 2 -1.02 2 0 2 C0 1.34 0 0.68 0 0 Z " fill="#395978" transform="translate(315,109)"/>
<path d="M0 0 C0.99 0.33 1.98 0.66 3 1 C3 4.3 3 7.6 3 11 C3.33 7.7 3.66 4.4 4 1 C4.33 1 4.66 1 5 1 C5 5.95 5 10.9 5 16 C3.35 16 1.7 16 0 16 C-0.33 14.35 -0.66 12.7 -1 11 C-0.34 11 0.32 11 1 11 C0.67 7.37 0.34 3.74 0 0 Z " fill="#36577C" transform="translate(321,462)"/>
<path d="M0 0 C5.75 -0.125 5.75 -0.125 8 1 C8.6328125 3.06640625 8.6328125 3.06640625 9.125 5.5625 C9.29257812 6.38878906 9.46015625 7.21507812 9.6328125 8.06640625 C9.75398438 8.70449219 9.87515625 9.34257812 10 10 C10.33 10 10.66 10 11 10 C10.67 12.31 10.34 14.62 10 17 C10.66 17 11.32 17 12 17 C11.67 17.66 11.34 18.32 11 19 C8.69 18.67 6.38 18.34 4 18 C4.495 17.505 4.99 17.01 5.5 16.5 C7.59304854 13.01158577 7.752987 9.97773569 7 6 C4.90492772 3.25473287 2.88179993 1.92119996 0 0 Z " fill="#36537B" transform="translate(469,440)"/>
<path d="M0 0 C0.66 0 1.32 0 2 0 C2.27972656 0.63808594 2.55945313 1.27617187 2.84765625 1.93359375 C4.08276038 4.47925852 5.28148093 6.74844151 7 9 C10.63147485 10.0565109 10.63147485 10.0565109 14 10 C14.33 10.66 14.66 11.32 15 12 C15.33 11.01 15.66 10.02 16 9 C16.33 10.32 16.66 11.64 17 13 C13.04 13 9.08 13 5 13 C0 2.25 0 2.25 0 0 Z " fill="#3A5373" transform="translate(543,474)"/>
<path d="M0 0 C4.39158329 1.4638611 4.87947433 3.97831338 7 8 C6 9 6 9 4.15234375 9.09765625 C2.1015625 9.06510417 0.05078125 9.03255208 -2 9 C-1.125 1.125 -1.125 1.125 0 0 Z " fill="#224C75" transform="translate(416,475)"/>
<path d="M0 0 C4.42857143 5.14285714 4.42857143 5.14285714 5 9 C1.34683329 7.75023244 0.21934164 7.32901247 -2 4 C-2.91692961 6.75078884 -3.10886083 8.35948913 -3.0625 11.1875 C-3.041875 12.445625 -3.02125 13.70375 -3 15 C-4.5625 13.75 -4.5625 13.75 -6 12 C-5.625 10.125 -5.625 10.125 -5 8 C-5.38567131 5.31850007 -5.38567131 5.31850007 -6 3 C-5.34 3 -4.68 3 -4 3 C-4 2.34 -4 1.68 -4 1 C-2.68 0.67 -1.36 0.34 0 0 Z " fill="#385980" transform="translate(537,438)"/>
<path d="M0 0 C0.66 0.99 1.32 1.98 2 3 C1.3125 5.625 1.3125 5.625 0 8 C-0.99 8.33 -1.98 8.66 -3 9 C-1.68 9.33 -0.36 9.66 1 10 C1.66 8.68 2.32 7.36 3 6 C3 6.66 3 7.32 3 8 C4.32 8.66 5.64 9.32 7 10 C6.34 11.32 5.68 12.64 5 14 C4.34 12.68 3.68 11.36 3 10 C2.608125 10.515625 2.21625 11.03125 1.8125 11.5625 C1.214375 12.036875 0.61625 12.51125 0 13 C-2.61328125 12.58984375 -2.61328125 12.58984375 -5 12 C-4.35522931 10.37457807 -3.70914857 8.74967576 -3.0625 7.125 C-2.52302734 5.76761719 -2.52302734 5.76761719 -1.97265625 4.3828125 C-1 2 -1 2 0 0 Z " fill="#2D537E" transform="translate(513,451)"/>
<path d="M0 0 C0.33 0 0.66 0 1 0 C1 2.97 1 5.94 1 9 C-4.94 9 -10.88 9 -17 9 C-12.54547969 5.65910977 -11.95185771 5.69053875 -6.75 6.3125 C-5.13351562 6.49232422 -5.13351562 6.49232422 -3.484375 6.67578125 C-2.25460937 6.83626953 -2.25460937 6.83626953 -1 7 C-1.020625 6.030625 -1.04125 5.06125 -1.0625 4.0625 C-1 1 -1 1 0 0 Z " fill="#2E496A" transform="translate(300,431)"/>
<path d="M0 0 C0.66 0 1.32 0 2 0 C2.33 6.93 2.66 13.86 3 21 C5.64 21 8.28 21 11 21 C11 21.66 11 22.32 11 23 C7.7 23 4.4 23 1 23 C0.67 15.41 0.34 7.82 0 0 Z " fill="#274360" transform="translate(209,464)"/>
<path d="M0 0 C1.32 0 2.64 0 4 0 C4 0.66 4 1.32 4 2 C3.34 2 2.68 2 2 2 C1.85691406 2.8971875 1.85691406 2.8971875 1.7109375 3.8125 C0.84523884 6.47618819 -0.18346524 7.29855529 -2.375 9 C-5.01240219 11.13375044 -7.1261364 13.13409096 -9 16 C-10.32 15.34 -11.64 14.68 -13 14 C-12.13375 13.484375 -11.2675 12.96875 -10.375 12.4375 C-5.74783164 9.36004836 -1.76987657 5.3096297 0 0 Z " fill="#DCEAF1" transform="translate(304,344)"/>
<path d="M0 0 C1.17755859 -0.00773437 1.17755859 -0.00773437 2.37890625 -0.015625 C4.4375 0.25 4.4375 0.25 6.4375 2.25 C-0.0625 5.25 -0.0625 5.25 -4.5625 5.25 C-4.8925 5.91 -5.2225 6.57 -5.5625 7.25 C-6.2225 5.6 -6.8825 3.95 -7.5625 2.25 C-4.42838698 0.16059132 -3.58799528 -0.02364412 0 0 Z " fill="#2D5073" transform="translate(245.5625,103.75)"/>
<path d="M0 0 C6.63157895 6.44736842 6.63157895 6.44736842 9 10 C8.9375 12.25 8.9375 12.25 8 14 C7.01 14.33 6.02 14.66 5 15 C3.90341064 11.71023192 4.20046862 10.28696233 5 7 C3.35 6.67 1.7 6.34 0 6 C0 4.02 0 2.04 0 0 Z " fill="#3D5A7D" transform="translate(477,469)"/>
<path d="M0 0 C0.99 0.33 1.98 0.66 3 1 C4.1875 3.5625 4.1875 3.5625 5 6 C1.7 6 -1.6 6 -5 6 C-5 5.01 -5 4.02 -5 3 C-2 2 -2 2 0 2 C0 1.34 0 0.68 0 0 Z " fill="#274667" transform="translate(485,481)"/>
<path d="M0 0 C0.66 0 1.32 0 2 0 C2.99 1.98 3.98 3.96 5 6 C5.66 5.34 6.32 4.68 7 4 C6.67 5.65 6.34 7.3 6 9 C2 9 2 9 0.1875 7.3125 C-1.29757762 4.42050674 -0.93131785 3.04794934 0 0 Z " fill="#23446E" transform="translate(520,439)"/>
<path d="M0 0 C-1.53424467 3.19634307 -3.27783564 6.24699094 -5.046875 9.31640625 C-6.10122643 11.1788057 -7.07393445 13.07069677 -8 15 C-8.96142994 11.32908566 -9.15459967 9.41497807 -7.8125 5.8125 C-5.78358067 2.6641769 -3.97528979 0 0 0 Z " fill="#E4F1F6" transform="translate(298,121)"/>
<path d="M0 0 C9.24 0 18.48 0 28 0 C28 0.33 28 0.66 28 1 C19.75 1 11.5 1 3 1 C2.67 1.99 2.34 2.98 2 4 C1.34 4 0.68 4 0 4 C0 2.68 0 1.36 0 0 Z " fill="#36506A" transform="translate(511,473)"/>
<path d="M0 0 C0.66 0.33 1.32 0.66 2 1 C1.67 1.66 1.34 2.32 1 3 C2.15628906 2.96519531 2.15628906 2.96519531 3.3359375 2.9296875 C4.33882813 2.91164063 5.34171875 2.89359375 6.375 2.875 C7.37273437 2.85179687 8.37046875 2.82859375 9.3984375 2.8046875 C12 3 12 3 14 5 C10.94730154 6.52634923 8.24154311 5.83794444 4.875 5.5625 C3.59367187 5.46066406 2.31234375 5.35882813 0.9921875 5.25390625 C0.00476563 5.17011719 -0.98265625 5.08632813 -2 5 C-1 2 -1 2 0 0 Z " fill="#254367" transform="translate(453,463)"/>
<path d="M0 0 C3 1 3 1 4 3 C4.47317073 10.45243902 4.47317073 10.45243902 2.484375 12.75390625 C1.99453125 13.16511719 1.5046875 13.57632812 1 14 C1.03480469 13.09507812 1.03480469 13.09507812 1.0703125 12.171875 C1.08835937 11.37265625 1.10640625 10.5734375 1.125 9.75 C1.14820313 8.96109375 1.17140625 8.1721875 1.1953125 7.359375 C0.9828378 4.79268059 0.28654105 3.2083933 -1 1 C-0.67 0.67 -0.34 0.34 0 0 Z " fill="#E8F6FB" transform="translate(473,443)"/>
<path d="M0 0 C1.28432364 3.85297092 0.58019149 5.31288651 -1 9 C-3.125 11.375 -3.125 11.375 -5 13 C-5.66 12.67 -6.32 12.34 -7 12 C-5.44298069 7.32894208 -2.91552627 3.91294315 0 0 Z " fill="#DEEAF0" transform="translate(244,431)"/>
<path d="M0 0 C2.18697502 2.79624958 3.99152813 5.63307872 5.6875 8.75 C6.12449219 9.54921875 6.56148437 10.3484375 7.01171875 11.171875 C7.33785156 11.77515625 7.66398438 12.3784375 8 13 C7.01 13.33 6.02 13.66 5 14 C4.34 13.67 3.68 13.34 3 13 C2.40644386 10.35139573 2.25790731 7.70802678 2 5 C1.34 5 0.68 5 0 5 C0 3.35 0 1.7 0 0 Z " fill="#D4E3EB" transform="translate(236,338)"/>
<path d="M0 0 C0.99 0.66 1.98 1.32 3 2 C2.67 3.65 2.34 5.3 2 7 C4.31 7.33 6.62 7.66 9 8 C9 8.33 9 8.66 9 9 C5.04 9 1.08 9 -3 9 C-2.01 6.03 -1.02 3.06 0 0 Z " fill="#3F5875" transform="translate(500,478)"/>
<path d="M0 0 C0.33 0.66 0.66 1.32 1 2 C-5.93 2 -12.86 2 -20 2 C-20 1.67 -20 1.34 -20 1 C-13.0032029 -0.58245318 -7.08786976 -1.37184576 0 0 Z " fill="#2B4768" transform="translate(472,438)"/>
<path d="M0 0 C0.33 0 0.66 0 1 0 C1 5.94 1 11.88 1 18 C0.34 18 -0.32 18 -1 18 C-2.13673517 13.77897638 -1.79839993 10.47303491 -1.0625 6.1875 C-0.86785156 5.02605469 -0.67320312 3.86460937 -0.47265625 2.66796875 C-0.31667969 1.78753906 -0.16070312 0.90710938 0 0 Z " fill="#264665" transform="translate(449,440)"/>
<path d="M0 0 C5 6.36363636 5 6.36363636 5 11 C3.68 11 2.36 11 1 11 C-0.17571451 7.32589215 -0.07366746 3.83070817 0 0 Z " fill="#3E5D7B" transform="translate(553,472)"/>
<path d="M0 0 C0.33 0 0.66 0 1 0 C1 6.27 1 12.54 1 19 C1.66 19 2.32 19 3 19 C3 20.32 3 21.64 3 23 C2.01 23 1.02 23 0 23 C0 15.41 0 7.82 0 0 Z " fill="#294367" transform="translate(91,464)"/>
<path d="M0 0 C0.33 0 0.66 0 1 0 C1.16873478 1.43725871 1.33490737 2.87481838 1.5 4.3125 C1.5928125 5.11300781 1.685625 5.91351563 1.78125 6.73828125 C2.25408348 11.62704174 2.25408348 11.62704174 0.90625 13.60546875 C-0.39583333 15.0703125 -1.69791667 16.53515625 -3 18 C-3.99 17.67 -4.98 17.34 -6 17 C-5.34 17 -4.68 17 -4 17 C-1.94862685 13.51783717 -1.43181408 10.22724343 -0.875 6.25 C-0.62363281 4.49429687 -0.62363281 4.49429687 -0.3671875 2.703125 C-0.24601562 1.81109375 -0.12484375 0.9190625 0 0 Z " fill="#DCEAF3" transform="translate(489,445)"/>
<path d="M0 0 C0.66 1.32 1.32 2.64 2 4 C0.71034824 5.37562854 -0.62689293 6.70766393 -2 8 C-2.66 8 -3.32 8 -4 8 C-4.28875 8.639375 -4.5775 9.27875 -4.875 9.9375 C-6 12 -6 12 -8 13 C-6.53181332 9.89257577 -4.79975 7.09528261 -2.875 4.25 C-2.33617187 3.45078125 -1.79734375 2.6515625 -1.2421875 1.828125 C-0.62730469 0.92320312 -0.62730469 0.92320312 0 0 Z " fill="#D8E5EF" transform="translate(234,446)"/>
<path d="M0 0 C3.96 0 7.92 0 12 0 C14.25 5.625 14.25 5.625 13 9 C12.34 8.67 11.68 8.34 11 8 C10.59270772 5.67843403 10.25561323 3.3431213 10 1 C6.7 1 3.4 1 0 1 C0 0.67 0 0.34 0 0 Z " fill="#34506A" transform="translate(523,431)"/>
<path d="M0 0 C0.33 0 0.66 0 1 0 C1.33292585 4.24480464 1.43885872 6.35542625 -1 9.9375 C-1.66 10.618125 -2.32 11.29875 -3 12 C-3.99 11.34 -4.98 10.68 -6 10 C-5.34 8.35 -4.68 6.7 -4 5 C-3.01 5 -2.02 5 -1 5 C-0.67 3.35 -0.34 1.7 0 0 Z " fill="#3E5B7B" transform="translate(422,113)"/>
<path d="M0 0 C0.90105469 0.11085938 1.80210937 0.22171875 2.73046875 0.3359375 C3.76107422 0.47902344 3.76107422 0.47902344 4.8125 0.625 C1.59610346 2.37065111 -0.50763404 2.829437 -4.1875 2.625 C-4.1875 3.285 -4.1875 3.945 -4.1875 4.625 C-5.5075 4.955 -6.8275 5.285 -8.1875 5.625 C-8.1875 4.305 -8.1875 2.985 -8.1875 1.625 C-4.73535147 -0.67643236 -3.95270676 -0.51333854 0 0 Z " fill="#D8E5EE" transform="translate(319.1875,106.375)"/>
<path d="M0 0 C1.80411967 2.75924185 2.0127245 3.88972103 1.625 7.25 C1.41875 8.1575 1.2125 9.065 1 10 C-1.52588702 7.63707344 -2.88820837 6.33537489 -4 3 C-3.01 2.67 -2.02 2.34 -1 2 C-0.67 1.34 -0.34 0.68 0 0 Z " fill="#E9F4F7" transform="translate(422,472)"/>
<path d="M0 0 C0.99 0 1.98 0 3 0 C1.7580393 3.43927579 0.44259716 6.25207819 -2 9 C-2.66 9 -3.32 9 -4 9 C-4.33 8.01 -4.66 7.02 -5 6 C-4.34 6 -3.68 6 -3 6 C-2.690625 5.195625 -2.38125 4.39125 -2.0625 3.5625 C-1 1 -1 1 0 0 Z " fill="#E3EDF5" transform="translate(218,447)"/>
<path d="M0 0 C1.65 0.33 3.3 0.66 5 1 C3.8141763 4.37503669 2.72426311 6.64722731 0 9 C-1.21346851 5.35959446 -1.21346851 3.64040554 0 0 Z " fill="#E6F0F4" transform="translate(225,432)"/>
<path d="M0 0 C0.66 0.99 1.32 1.98 2 3 C1.06400328 7.16943993 0.62383901 8.58410733 -3 11 C-4 8 -4 8 -3.22265625 5.95703125 C-2.83980469 5.24933594 -2.45695312 4.54164063 -2.0625 3.8125 C-1.68222656 3.09707031 -1.30195313 2.38164062 -0.91015625 1.64453125 C-0.60980469 1.10183594 -0.30945313 0.55914062 0 0 Z " fill="#3C5879" transform="translate(507,464)"/>
<path d="M0 0 C0.33 0 0.66 0 1 0 C1.68837568 9.67550265 1.68837568 9.67550265 -0.875 13.625 C-1.57625 14.40875 -2.2775 15.1925 -3 16 C-3.66 16 -4.32 16 -5 16 C-4.70351563 15.46890625 -4.40703125 14.9378125 -4.1015625 14.390625 C-2.79671201 11.55882182 -2.09981648 8.78105074 -1.375 5.75 C-1.11460937 4.67234375 -0.85421875 3.5946875 -0.5859375 2.484375 C-0.39257812 1.66453125 -0.19921875 0.8446875 0 0 Z " fill="#2A4664" transform="translate(422,446)"/>
<path d="M0 0 C4.455 0.99 4.455 0.99 9 2 C8.67 2.99 8.34 3.98 8 5 C6.35 5.33 4.7 5.66 3 6 C3 5.34 3 4.68 3 4 C1.35 3.67 -0.3 3.34 -2 3 C-1.34 2.67 -0.68 2.34 0 2 C0 1.34 0 0.68 0 0 Z " fill="#ECF4F7" transform="translate(258,361)"/>
<path d="M0 0 C0 1.98 0 3.96 0 6 C-0.66 5.67 -1.32 5.34 -2 5 C-2 4.34 -2 3.68 -2 3 C-2.78375 2.71125 -3.5675 2.4225 -4.375 2.125 C-7 1 -7 1 -9 -1 C-5.38055101 -2.34053666 -3.42632833 -1.61798838 0 0 Z " fill="#D9E6EF" transform="translate(423,107)"/>
<path d="M0 0 C5.75 -0.125 5.75 -0.125 8 1 C9.0317435 3.93300669 9.10790988 6.66212836 9.0625 9.75 C9.05347656 10.54921875 9.04445313 11.3484375 9.03515625 12.171875 C9.02355469 12.77515625 9.01195312 13.3784375 9 14 C8.67 14 8.34 14 8 14 C7.92523438 13.31292969 7.85046875 12.62585938 7.7734375 11.91796875 C7.37023101 9.15481839 6.91821745 6.63987517 6 4 C3.06337328 1.77674321 3.06337328 1.77674321 0 1 C0 0.67 0 0.34 0 0 Z " fill="#657C98" transform="translate(469,440)"/>
<path d="M0 0 C0 0.99 0 1.98 0 3 C-3.63 3 -7.26 3 -11 3 C-11.33 2.34 -11.66 1.68 -12 1 C-7.95858806 0.36605303 -4.0934693 -0.12404452 0 0 Z " fill="#ECF6FA" transform="translate(282,363)"/>
<path d="M0 0 C1.32 0 2.64 0 4 0 C5.20272819 2.40545638 5.10071472 3.94996953 5.0625 6.625 C5.05347656 7.44226563 5.04445313 8.25953125 5.03515625 9.1015625 C5.02355469 9.72804688 5.01195312 10.35453125 5 11 C4.67 11 4.34 11 4 11 C3.896875 10.2575 3.79375 9.515 3.6875 8.75 C2.95342107 5.8136843 1.85500323 4.33891712 0 2 C0 1.34 0 0.68 0 0 Z " fill="#DCE8F0" transform="translate(407,443)"/>
<path d="M0 0 C0.66 0.66 1.32 1.32 2 2 C2.99 1.67 3.98 1.34 5 1 C3.55746343 4.36591866 1.66735273 6.51047079 -1 9 C-1.66 8.67 -2.32 8.34 -3 8 C-2.67 6.68 -2.34 5.36 -2 4 C-1.34 4 -0.68 4 0 4 C0 2.68 0 1.36 0 0 Z " fill="#D6E2EA" transform="translate(281,333)"/>
<path d="M0 0 C0.99 0 1.98 0 3 0 C2.56802365 4.7517398 1.67230705 6.92000054 -2 10 C-1.125 2.25 -1.125 2.25 0 0 Z " fill="#345376" transform="translate(290,136)"/>
<path d="M0 0 C0.66 0.33 1.32 0.66 2 1 C2.625 4.0625 2.625 4.0625 3 7 C1.68 7 0.36 7 -1 7 C-1.33 5.02 -1.66 3.04 -2 1 C-1.34 0.67 -0.68 0.34 0 0 Z " fill="#E8F1F4" transform="translate(426,480)"/>
<path d="M0 0 C0.66 0.33 1.32 0.66 2 1 C2 2.65 2 4.3 2 6 C1.01 6 0.02 6 -1 6 C-1.33 7.32 -1.66 8.64 -2 10 C-2.66 7.03 -3.32 4.06 -4 1 C-2.68 1.33 -1.36 1.66 0 2 C0 1.34 0 0.68 0 0 Z " fill="#214676" transform="translate(545,457)"/>
<path d="M0 0 C0.66 0.99 1.32 1.98 2 3 C1.3125 5.625 1.3125 5.625 0 8 C-0.99 8.33 -1.98 8.66 -3 9 C-3 9.99 -3 10.98 -3 12 C-3.66 11.67 -4.32 11.34 -5 11 C-3.35 7.37 -1.7 3.74 0 0 Z " fill="#43617F" transform="translate(513,451)"/>
<path d="M0 0 C2.64465038 3.1254959 3.84414715 6.08788267 5 10 C3.125 9.8125 3.125 9.8125 1 9 C-0.5225431 6.31742407 -1.12235992 4.75455283 -0.625 1.6875 C-0.41875 1.130625 -0.2125 0.57375 0 0 Z " fill="#42617D" transform="translate(542,448)"/>
<path d="M0 0 C1.32 0 2.64 0 4 0 C3.67 2.64 3.34 5.28 3 8 C0.9375 6.25 0.9375 6.25 -1 4 C-0.75 1.75 -0.75 1.75 0 0 Z " fill="#EFFAFA" transform="translate(489,440)"/>
<path d="M0 0 C1.65 0 3.3 0 5 0 C5.33 2.31 5.66 4.62 6 7 C5.01 7 4.02 7 3 7 C2.01 4.69 1.02 2.38 0 0 Z " fill="#E2ECF4" transform="translate(536,435)"/>
<path d="M0 0 C3.96 0 7.92 0 12 0 C10.515 2.475 10.515 2.475 9 5 C8.34 3.68 7.68 2.36 7 1 C5.02 1 3.04 1 1 1 C0.67 1.66 0.34 2.32 0 3 C0 2.01 0 1.02 0 0 Z " fill="#2C4461" transform="translate(232,431)"/>
<path d="M0 0 C2 3 2 3 1.625 5.1875 C1.41875 5.785625 1.2125 6.38375 1 7 C-0.32 7 -1.64 7 -3 7 C-2.625 4.0625 -2.625 4.0625 -2 1 C-1.34 0.67 -0.68 0.34 0 0 Z " fill="#E8F6F9" transform="translate(523,457)"/>
<path d="M0 0 C2.52259061 1.97420135 2.9929808 2.96745642 3.6875 6.1875 C3.790625 7.115625 3.89375 8.04375 4 9 C2.35 9 0.7 9 -1 9 C-0.01 8.67 0.98 8.34 2 8 C2 7.34 2 6.68 2 6 C1.34 6 0.68 6 0 6 C0 4.02 0 2.04 0 0 Z " fill="#EAF8FC" transform="translate(533,455)"/>
<path d="M0 0 C0.33 0 0.66 0 1 0 C1 2.64 1 5.28 1 8 C1.66 8 2.32 8 3 8 C3 8.66 3 9.32 3 10 C0 12 0 12 -2.1875 11.625 C-2.785625 11.41875 -3.38375 11.2125 -4 11 C-3.01 10.67 -2.02 10.34 -1 10 C-0.67 6.7 -0.34 3.4 0 0 Z " fill="#486984" transform="translate(412,446)"/>
<path d="M0 0 C0.66 0.33 1.32 0.66 2 1 C2.1953125 7.0546875 2.1953125 7.0546875 2 9 C1.34 9.66 0.68 10.32 0 11 C-1.28571429 3.57142857 -1.28571429 3.57142857 0 0 Z " fill="#2D4867" transform="translate(487,445)"/>
<path d="M0 0 C1.65 0 3.3 0 5 0 C5.33 0.99 5.66 1.98 6 3 C6.66 3 7.32 3 8 3 C7.34 4.32 6.68 5.64 6 7 C1.125 2.25 1.125 2.25 0 0 Z " fill="#D7E4E9" transform="translate(480,433)"/>
<path d="M0 0 C0.33 0.66 0.66 1.32 1 2 C1.99 1.67 2.98 1.34 4 1 C4 1.66 4 2.32 4 3 C4.66 3.66 5.32 4.32 6 5 C2.37 5 -1.26 5 -5 5 C-3.35 3.35 -1.7 1.7 0 0 Z " fill="#CED9E3" transform="translate(153,426)"/>
<path d="M0 0 C0.99 0.33 1.98 0.66 3 1 C5.73289293 1.22797562 8.45042204 1.41668187 11.1875 1.5625 C11.93708984 1.60568359 12.68667969 1.64886719 13.45898438 1.69335938 C15.30578375 1.79922685 17.15286834 1.9000976 19 2 C19 2.33 19 2.66 19 3 C12.73 3 6.46 3 0 3 C0 2.01 0 1.02 0 0 Z " fill="#1F3C58" transform="translate(269,209)"/>
<path d="M0 0 C0.66 0 1.32 0 2 0 C2.33 0.99 2.66 1.98 3 3 C2.34 3 1.68 3 1 3 C1.12375 4.27875 1.2475 5.5575 1.375 6.875 C1.44460938 7.59429687 1.51421875 8.31359375 1.5859375 9.0546875 C1.86374749 11.22668245 1.86374749 11.22668245 4 13 C2.68 13.33 1.36 13.66 0 14 C0 9.38 0 4.76 0 0 Z " fill="#EDFAFD" transform="translate(386,469)"/>
<path d="M0 0 C2.97 1.98 2.97 1.98 6 4 C5.67 4.99 5.34 5.98 5 7 C3.68 6.67 2.36 6.34 1 6 C1 5.34 1 4.68 1 4 C0.34 4 -0.32 4 -1 4 C-0.67 2.68 -0.34 1.36 0 0 Z " fill="#24456F" transform="translate(546,464)"/>
<path d="M0 0 C0 3 0 6 0 9 C-2 7.1875 -2 7.1875 -4 5 C-4 4.01 -4 3.02 -4 2 C-2.68 1.34 -1.36 0.68 0 0 Z " fill="#D3E5ED" transform="translate(416,464)"/>
<path d="M0 0 C0.33 0.66 0.66 1.32 1 2 C0.00390625 4.3828125 0.00390625 4.3828125 -1.4375 7.125 C-1.91058594 8.03507812 -2.38367188 8.94515625 -2.87109375 9.8828125 C-3.24363281 10.58148438 -3.61617187 11.28015625 -4 12 C-5.11841676 8.64474971 -4.91538821 8.02910146 -3.6875 4.875 C-3.42324219 4.17117188 -3.15898438 3.46734375 -2.88671875 2.7421875 C-2 1 -2 1 0 0 Z " fill="#405E77" transform="translate(525,448)"/>
<path d="M0 0 C1.98 0.495 1.98 0.495 4 1 C4.33 2.32 4.66 3.64 5 5 C3.35 4.67 1.7 4.34 0 4 C0 2.68 0 1.36 0 0 Z " fill="#375577" transform="translate(251,354)"/>
<path d="M0 0 C3.63 0 7.26 0 11 0 C8 3 8 3 5.3125 3.1875 C4.549375 3.125625 3.78625 3.06375 3 3 C3 2.34 3 1.68 3 1 C2.01 0.67 1.02 0.34 0 0 Z " fill="#E8F5FC" transform="translate(270,487)"/>
<path d="M0 0 C-0.33 0.66 -0.66 1.32 -1 2 C-2.65 2 -4.3 2 -6 2 C-6 2.66 -6 3.32 -6 4 C-6.66 4 -7.32 4 -8 4 C-8.66 2.68 -9.32 1.36 -10 0 C-6.30581799 -1.231394 -3.7943739 -0.64432764 0 0 Z " fill="#DFEAEF" transform="translate(498,483)"/>
<path d="M0 0 C0.66 1.32 1.32 2.64 2 4 C1.01 4 0.02 4 -1 4 C-1.33 5.32 -1.66 6.64 -2 8 C-4 5 -4 5 -4 2 C-2.68 1.34 -1.36 0.68 0 0 Z " fill="#E0EBF3" transform="translate(481,464)"/>
<path d="M0 0 C0.33 0 0.66 0 1 0 C1.25 6.625 1.25 6.625 -1 10 C-1.66 10 -2.32 10 -3 10 C-2.39009109 6.44219804 -1.4216319 3.3171411 0 0 Z " fill="#4C6882" transform="translate(518,440)"/>
<path d="M0 0 C1.32 0 2.64 0 4 0 C4.125 4.75 4.125 4.75 3 7 C2.34 7 1.68 7 1 7 C0.67 4.69 0.34 2.38 0 0 Z " fill="#264F82" transform="translate(478,478)"/>
<path d="M0 0 C1.65 0.33 3.3 0.66 5 1 C3.02 1.99 3.02 1.99 1 3 C1 3.66 1 4.32 1 5 C1.66 5 2.32 5 3 5 C2.67 5.99 2.34 6.98 2 8 C1.01 7.34 0.02 6.68 -1 6 C-0.67 4.02 -0.34 2.04 0 0 Z " fill="#355A84" transform="translate(474,461)"/>
<path d="M0 0 C0.66 0 1.32 0 2 0 C4.02350324 3.03525486 4.32124018 4.19426202 4.625 7.6875 C4.69976562 8.49574219 4.77453125 9.30398438 4.8515625 10.13671875 C4.92503906 11.05904297 4.92503906 11.05904297 5 12 C4.01 12.495 4.01 12.495 3 13 C2.87625 11.783125 2.7525 10.56625 2.625 9.3125 C2.21108694 5.93520941 1.45426549 3.10243305 0 0 Z " fill="#264666" transform="translate(410,441)"/>
<path d="M0 0 C3.63 0 7.26 0 11 0 C9.515 1.485 9.515 1.485 8 3 C4.35265021 2.77669287 2.61627165 2.61627165 0 0 Z " fill="#274565" transform="translate(266,343)"/>
<path d="M0 0 C0.33 0 0.66 0 1 0 C1.125 3.375 1.125 3.375 1 7 C0.34 7.66 -0.32 8.32 -1 9 C-2 8 -2 8 -2.1875 5.0625 C-2 2 -2 2 0 0 Z " fill="#EDF9FD" transform="translate(286,325)"/>
<path d="M0 0 C0.66 0 1.32 0 2 0 C1.125 4.75 1.125 4.75 0 7 C-2.0625 7.625 -2.0625 7.625 -4 8 C-2.87548273 5.0280615 -1.77706209 2.66559313 0 0 Z " fill="#D3E1ED" transform="translate(315,134)"/>
<path d="M0 0 C0.66 0 1.32 0 2 0 C2.33 1.32 2.66 2.64 3 4 C0.36 4 -2.28 4 -5 4 C-5 3.34 -5 2.68 -5 2 C-3.35 2 -1.7 2 0 2 C0 1.34 0 0.68 0 0 Z " fill="#334D62" transform="translate(422,483)"/>
<path d="M0 0 C2.6855594 2.6855594 3.06049974 5.37621328 4 9 C3.01 9.33 2.02 9.66 1 10 C-0.60725635 6.78548731 -0.05748185 3.56387464 0 0 Z " fill="#4E6685" transform="translate(547,458)"/>
<path d="M0 0 C0.33 0.99 0.66 1.98 1 3 C-1.31 3.33 -3.62 3.66 -6 4 C-6 3.01 -6 2.02 -6 1 C-3.92446352 0.4465236 -2.15634036 0 0 0 Z " fill="#1E4C7D" transform="translate(396,462)"/>
<path d="M0 0 C0.66 1.32 1.32 2.64 2 4 C1.01 4.99 0.02 5.98 -1 7 C-1.99 6.67 -2.98 6.34 -4 6 C-2.68 4.02 -1.36 2.04 0 0 Z " fill="#3A597A" transform="translate(231,432)"/>
<path d="M0 0 C0.99 0.33 1.98 0.66 3 1 C4.1875 3.5625 4.1875 3.5625 5 6 C3.68 6 2.36 6 1 6 C0.67 4.02 0.34 2.04 0 0 Z " fill="#374E65" transform="translate(485,481)"/>
<path d="M0 0 C1.9375 0.6875 1.9375 0.6875 4 2 C4.75 4.625 4.75 4.625 5 7 C4.01 7.495 4.01 7.495 3 8 C0 2.25 0 2.25 0 0 Z " fill="#E4F1F7" transform="translate(553,470)"/>
<path d="M0 0 C0.66 0 1.32 0 2 0 C3.1875 2.75 3.1875 2.75 4 6 C3.01 7.32 2.02 8.64 1 10 C0.67 6.7 0.34 3.4 0 0 Z " fill="#234168" transform="translate(477,443)"/>
<path d="M0 0 C0.33 0 0.66 0 1 0 C1 2.97 1 5.94 1 9 C0.01 9 -0.98 9 -2 9 C-1.125 1.125 -1.125 1.125 0 0 Z " fill="#435A72" transform="translate(300,431)"/>
<path d="M0 0 C1.32 0.33 2.64 0.66 4 1 C3.34 2.98 2.68 4.96 2 7 C1.34 6.67 0.68 6.34 0 6 C0 4.02 0 2.04 0 0 Z " fill="#EFF9FC" transform="translate(282,481)"/>
<path d="M0 0 C2 1.8125 2 1.8125 4 4 C4 4.99 4 5.98 4 7 C2.68 6.67 1.36 6.34 0 6 C0 4.02 0 2.04 0 0 Z " fill="#3D516E" transform="translate(477,469)"/>
<path d="M0 0 C0.99 0.33 1.98 0.66 3 1 C2.67 3.97 2.34 6.94 2 10 C1.34 9.67 0.68 9.34 0 9 C0 6.03 0 3.06 0 0 Z " fill="#EDF7FD" transform="translate(355,454)"/>
<path d="M0 0 C0.33 0 0.66 0 1 0 C0.25 7.625 0.25 7.625 -2 11 C-2.93423645 7.98968256 -3.04449911 7.13349732 -2 4 C-1.34 4 -0.68 4 0 4 C0 2.68 0 1.36 0 0 Z " fill="#4B6884" transform="translate(307,333)"/>
<path d="M0 0 C2.66735273 2.48952921 4.55746343 4.63408134 6 8 C4.68 7.67 3.36 7.34 2 7 C1.34 4.69 0.68 2.38 0 0 Z " fill="#496780" transform="translate(417,475)"/>
<path d="M0 0 C2.31 0 4.62 0 7 0 C6.34 1.32 5.68 2.64 5 4 C2 3 2 3 0 0 Z " fill="#F7FBF4" transform="translate(490,480)"/>
<path d="M0 0 C0.33 0.66 0.66 1.32 1 2 C1.66 2.33 2.32 2.66 3 3 C3.33 3.99 3.66 4.98 4 6 C1.03 5.505 1.03 5.505 -2 5 C-1.34 3.35 -0.68 1.7 0 0 Z " fill="#225181" transform="translate(472,468)"/>
<path d="M0 0 C1.32 0.33 2.64 0.66 4 1 C4.625 2.875 4.625 2.875 5 5 C4.34 5.66 3.68 6.32 3 7 C2.01 4.69 1.02 2.38 0 0 Z " fill="#EAF5F9" transform="translate(544,451)"/>
<path d="M0 0 C1.32 1.32 2.64 2.64 4 4 C3.67 4.66 3.34 5.32 3 6 C2.01 6 1.02 6 0 6 C-0.38218767 4.34385343 -0.71395102 2.67542976 -1 1 C-0.67 0.67 -0.34 0.34 0 0 Z " fill="#18447A" transform="translate(202,444)"/>
<path d="M0 0 C2.97 0.495 2.97 0.495 6 1 C6 1.99 6 2.98 6 4 C3.69 3.34 1.38 2.68 -1 2 C-0.67 1.34 -0.34 0.68 0 0 Z " fill="#516A84" transform="translate(404,439)"/>
<path d="M0 0 C0.99 0.33 1.98 0.66 3 1 C3.6875 3.0625 3.6875 3.0625 4 5 C3.01 5.33 2.02 5.66 1 6 C-0.0625 4.125 -0.0625 4.125 -1 2 C-0.67 1.34 -0.34 0.68 0 0 Z " fill="#E5F0F4" transform="translate(420,434)"/>
<path d="M0 0 C3.465 1.98 3.465 1.98 7 4 C5.02 4.99 5.02 4.99 3 6 C0 2.25 0 2.25 0 0 Z " fill="#3E577C" transform="translate(413,433)"/>
<path d="M0 0 C-2 2 -2 2 -5.625 2.125 C-6.73875 2.08375 -7.8525 2.0425 -9 2 C-5.945634 -1.054366 -3.9532319 -1.22686507 0 0 Z " fill="#294564" transform="translate(286,360)"/>
<path d="M0 0 C0.99 1.32 1.98 2.64 3 4 C2.67 4.66 2.34 5.32 2 6 C1.01 5.67 0.02 5.34 -1 5 C-1.6875 2.9375 -1.6875 2.9375 -2 1 C-1.34 0.67 -0.68 0.34 0 0 Z " fill="#29496B" transform="translate(243,344)"/>
</svg>
